<?xml version="1.0" encoding="utf-8"?>
<!-- Generator: Adobe Illustrator 26.5.0, SVG Export Plug-In . SVG Version: 6.00 Build 0)  -->
<svg version="1.1" id="running2" xmlns="http://www.w3.org/2000/svg" xmlns:xlink="http://www.w3.org/1999/xlink" x="0px" y="0px"
	 viewBox="0 0 237.5995 377.9992" style="enable-background:new 0 0 237.5995 377.9992;" xml:space="preserve">
<path d="M72.1129,259.3484l7.8562,0.5451l7.9346-44.5785l5.1435,45.4859l34.211,2.3738l9.957-55.9412l6.4546,57.0799l51.9167,3.6023
	l9.1158-131.3781c2.3658-34.0963-23.3569-63.6547-57.4532-66.0205c-34.0962-2.3658-63.6546,23.3569-66.0204,57.4532
	L72.1129,259.3484z"/>
<g>
	
		<ellipse transform="matrix(0.7071 -0.7071 0.7071 0.7071 -36.578 85.5657)" style="fill:#FFFFFF;stroke:#000000;stroke-width:5;stroke-miterlimit:10;" cx="84.9979" cy="86.9364" rx="72.9508" ry="72.9508"/>
	<g>
		
			<line style="fill:none;stroke:#000000;stroke-width:5;stroke-miterlimit:10;" x1="32.8925" y1="84.0382" x2="62.0914" y2="66.063"/>
		
			<line style="fill:none;stroke:#000000;stroke-width:5;stroke-miterlimit:10;" x1="52.1663" y1="90.1461" x2="44.2151" y2="60.9712"/>
	</g>
	<g>
		
			<line style="fill:none;stroke:#000000;stroke-width:5;stroke-miterlimit:10;" x1="18.1512" y1="112.0791" x2="91.1195" y2="135.4513"/>
		
			<line style="fill:none;stroke:#000000;stroke-width:5;stroke-miterlimit:10;" x1="75.646" y1="140.8659" x2="81.068" y2="121.9479"/>
		
			<line style="fill:none;stroke:#000000;stroke-width:5;stroke-miterlimit:10;" x1="59.4976" y1="135.7484" x2="64.5895" y2="117.8722"/>
		
			<line style="fill:none;stroke:#000000;stroke-width:5;stroke-miterlimit:10;" x1="44.5562" y1="130.4402" x2="50.6898" y2="112.8941"/>
		
			<line style="fill:none;stroke:#000000;stroke-width:5;stroke-miterlimit:10;" x1="32.2192" y1="125.9574" x2="37.5018" y2="109.288"/>
	</g>
	<g>
		<circle style="fill:#FFFFFF;stroke:#000000;stroke-width:5;stroke-miterlimit:10;" cx="94.7458" cy="88.7357" r="14.2077"/>
		<circle cx="90.4869" cy="84.0382" r="6.1877"/>
	</g>
</g>
<line style="fill:none;stroke:#000000;stroke-width:16;stroke-linecap:round;stroke-miterlimit:10;" x1="19.5301" y1="149.0116" x2="84.8026" y2="182.2958"/>
<line style="fill:none;stroke:#000000;stroke-width:16;stroke-linecap:round;stroke-miterlimit:10;" x1="139.7094" y1="342.4085" x2="97.9798" y2="216.4996"/>
<line style="fill:none;stroke:#000000;stroke-width:16;stroke-linecap:round;stroke-miterlimit:10;" x1="220.6158" y1="350.5772" x2="163.4589" y2="235.9007"/>
<g>
	<path style="fill:#FFFFFF;stroke:#000000;stroke-width:5;stroke-miterlimit:10;" d="M101.7367,50.644
		c3.7442-2.3461,8.681-1.2128,11.0271,2.5314l64.997,103.7302c2.3454,3.7434,1.2136,8.6803-2.5313,11.0264
		c-3.7442,2.3461-8.681,1.2128-11.0271-2.5314L99.2053,61.6705c-2.1333-3.4045-1.3893-7.7955,1.5786-10.3277
		C101.0796,51.0904,101.3974,50.8565,101.7367,50.644z"/>
</g>
</svg>
