<?xml version="1.0" encoding="UTF-8"?>
<svg xmlns="http://www.w3.org/2000/svg" viewBox="0 0 156.6782 344.1271">
  <defs>
    <style>
      .cls-1 {
        fill: #fdffd9;
      }

      .cls-1, .cls-2, .cls-3, .cls-4, .cls-5, .cls-6 {
        stroke: #000;
        stroke-miterlimit: 10;
      }

      .cls-1, .cls-3, .cls-6 {
        stroke-width: 2px;
      }

      .cls-2, .cls-3 {
        fill: #d4e6ff;
      }

      .cls-2, .cls-4 {
        stroke-width: 4px;
      }

      .cls-4, .cls-5 {
        fill: #fff;
      }

      .cls-6 {
        fill: #fff4d7;
      }
    </style>
  </defs>
  <g id="Layer_4" data-name="Layer 4">
    <path class="cls-2" d="M62.6025,318.6041c-1.3289-2.6936-.9425-5.6105-.4192-7.6075l6.2124-17.6118c1.8224-5.1664,7.5406-7.9025,12.707-6.0801l5.4507,1.9227c5.1664,1.8224,7.9025,7.5406,6.0801,12.707-1.2964,3.6751-3.9437,5.7403-3.1333,8.8827,.7207,2.7944,3.6506,2.6414,5.4831,5.6168,2.6201,4.2542,1.2029,11.9911-2.8205,14.3207-2.2548,1.3056-3.542-.1212-17.2676-5.2102-7.5631-2.8042-10.6798-3.6714-12.2926-6.9404Z"/>
    <path class="cls-2" d="M18.9211,326.9399c-1.601-3.245-1.1355-6.7591-.505-9.1649l7.4842-21.2174c2.1955-6.2241,9.0843-9.5203,15.3084-7.3248l6.5666,2.3163c6.2241,2.1955,9.5203,9.0843,7.3248,15.3084-1.5618,4.4275-4.7511,6.9154-3.7747,10.7012,.8682,3.3664,4.3979,3.1821,6.6056,6.7667,3.1565,5.1252,1.4492,14.4459-3.3979,17.2525-2.7164,1.5729-4.2671-.146-20.8027-6.2768-9.1115-3.3782-12.8662-4.423-14.8092-8.3612Z"/>
    <rect class="cls-4" x="79.9368" y="202.0989" width="32.1998" height="97.8692" rx="12" ry="12" transform="translate(88.976 -17.6504) rotate(19.4298)"/>
    <rect class="cls-4" x="39.667" y="197.7914" width="37.8086" height="105.3705" rx="12" ry="12" transform="translate(86.6569 -5.2192) rotate(19.4297)"/>
    <path class="cls-2" d="M8.8813,209.2405l31.1438,5.8178c.6671-1.747,4.0614-11.1525-.7106-20.8952-2.8814-5.883-7.367-9.085-9.552-10.4354-2.101,.1034-8.3585,.6884-13.75,5.5058-8.4843,7.5809-7.2697,18.8931-7.1312,20.0071Z"/>
  </g>
  <g id="Layer_5" data-name="Layer 5">
    <rect class="cls-4" x="10.9209" y="72.8458" width="88.2559" height="127.1146" rx="12" ry="12" transform="translate(25.9834 -7.7891) rotate(10.5811)"/>
    <rect class="cls-2" x="19.2258" y="67.4897" width="22.1102" height="42.7861" rx="11.0551" ry="11.0551" transform="translate(16.8362 -4.049) rotate(10.5811)"/>
    <line class="cls-4" x1="26.7132" y1="107.9811" x2="11.2282" y2="190.8757"/>
  </g>
  <g id="running2">
    <path class="cls-2" d="M99.5353,193.5807c-.1501,.4394-2.2498,6.772,.2029,8.6835,2.0546,1.6012,6.0771-.8561,6.7588,.2648,.7137,1.1734-3.7818,3.7225-3.4544,6.7641,.3141,2.9181,5.0229,5.8736,8.715,5.158,6.7023-1.299,8.0225-14.3014,8.1034-15.1887,.4987-5.4682-.2631-16.2807-5.9332-17.9723-5.3772-1.6042-12.2026,5.8792-14.3926,12.2906Z"/>
    <rect class="cls-4" x="104.6766" y="89.5796" width="30.1943" height="102.9166" rx="12" ry="12" transform="translate(27.9351 -19.5955) rotate(10.5811)"/>
  </g>
  <g id="Layer_2" data-name="Layer 2">
    <rect class="cls-4" x="50.2371" y="92.8295" width="88.2559" height="127.1146" rx="12" ry="12" transform="translate(13.9926 -7.6311) rotate(5.0012)"/>
    <ellipse class="cls-4" cx="109.2722" cy="53.1359" rx="45.3566" ry="51.1743" transform="translate(-4.1772 9.6264) rotate(-4.9498)"/>
    <line class="cls-4" x1="114.9182" y1="104.5624" x2="96.0367" y2="219.7021"/>
  </g>
  <g id="Layer_6" data-name="Layer 6">
    <line class="cls-4" x1="39.2497" y1="101.0749" x2="21.1148" y2="193.3536"/>
    <path class="cls-3" d="M139.5426,146.3188c-10.2685,.0247-20.537,.0493-30.8055,.074l1.9114-12.8807,29.7868,2.6067-.8926,10.2Z"/>
    <path class="cls-2" d="M56.5722,204.4973c-.0891,.5541-1.4416,8.5047-5.1442,9.1529-3.1016,.5431-6.0004-4.3622-7.3642-3.5528-1.4276,.8474,1.924,6.1192-.1514,9.1797-1.9912,2.9363-8.6941,3.4188-12.2288,.5598-6.4164-5.1898-.4471-19.8168-.03-20.8097,2.5708-6.1194,9.5196-17.2275,16.5313-15.8155,6.6495,1.3391,9.6879,13.1996,8.3872,21.2854Z"/>
  </g>
  <g id="Layer_3" data-name="Layer 3">
    <rect class="cls-4" x="43.4008" y="90.7464" width="33.715" height="106.9324" rx="12" ry="12" transform="translate(42.3196 -11.0502) rotate(16.0867)"/>
    <ellipse class="cls-3" cx="122.0748" cy="49.4695" rx="27.4119" ry="32.318" transform="translate(-3.8131 10.7173) rotate(-4.9498)"/>
    <path class="cls-5" d="M141.6378,35.4249c-2.7587-.3988-5.9702-.6783-9.547-.653-4.3508,.0307-8.1825,.5049-11.3555,1.1041-.9292-.0843-1.6244-.9184-1.5401-1.8476,.0845-.9316,.9159-1.6246,1.8475-1.5401,3.668-.4173,7.0273-.5473,10.0211-.5137,3.6052,.0404,11.1513,.1251,11.4912,1.9679,.0919,.4985-.3615,1.0276-.9172,1.4822Z"/>
    <polygon class="cls-3" points="52.3677 111.4823 84.3913 122.112 79.5793 138.7981 47.3233 128.9746 52.3677 111.4823"/>
    <path class="cls-3" d="M46.9882,137.5202c10.1058,3.054,20.2116,6.108,30.3174,9.162l-3.2798,11.3729-32.5165-8.9202c1.8263-3.8716,3.6525-7.7431,5.4788-11.6147Z"/>
    <path class="cls-6" d="M31.3882,229.4444c1.6287,6.832-2.6499,12.6092-7.2141,18.772-3.3623,4.5399-11.0717,14.9495-16.6489,13.0887-5.2555-1.7535-5.5158-13.3681-5.6364-18.7514-.1741-7.7709-.3716-16.5811,5.9751-21.4072,3.6289-2.7595,9.3086-4.1491,14.5599-2.0781,4.7976,1.8921,7.9616,6.1694,8.9644,10.3761Z"/>
    <path class="cls-1" d="M28.0968,226.9408c1.0802,4.531-1.7574,8.3624-4.7844,12.4496-2.2299,3.0108-7.3427,9.9145-11.0415,8.6804-3.4854-1.1629-3.6581-8.8657-3.7381-12.4359-.1155-5.1536-.2464-10.9965,3.9627-14.1973,2.4067-1.8301,6.1734-2.7517,9.6561-1.3782,3.1818,1.2548,5.2801,4.0915,5.9452,6.8814Z"/>
  </g>
</svg>