<?xml version="1.0" encoding="UTF-8"?>
<svg id="Layer_1" data-name="Layer 1" xmlns="http://www.w3.org/2000/svg" viewBox="0 0 156.6804 344.1273">
  <defs>
    <style>
      .cls-1 {
        fill: none;
      }

      .cls-1, .cls-2, .cls-3, .cls-4, .cls-5, .cls-6, .cls-7, .cls-8, .cls-9, .cls-10, .cls-11, .cls-12, .cls-13, .cls-14 {
        stroke: #000;
      }

      .cls-1, .cls-4, .cls-5, .cls-7, .cls-8, .cls-12 {
        stroke-miterlimit: 10;
      }

      .cls-1, .cls-5 {
        stroke-width: 4px;
      }

      .cls-2 {
        stroke-width: 2px;
      }

      .cls-2, .cls-3, .cls-5, .cls-7 {
        fill: #d4e6ff;
      }

      .cls-2, .cls-9 {
        stroke-miterlimit: 10;
      }

      .cls-3, .cls-10 {
        stroke-miterlimit: 10;
        stroke-width: 4px;
      }

      .cls-4 {
        fill: #fdffd9;
      }

      .cls-4, .cls-7, .cls-12 {
        stroke-width: 2px;
      }

      .cls-6 {
        stroke-miterlimit: 10;
        stroke-width: 4px;
      }

      .cls-6, .cls-8, .cls-9, .cls-10, .cls-11, .cls-13, .cls-14 {
        fill: #fff;
      }

      .cls-9 {
        stroke-width: 4px;
      }

      .cls-11 {
        stroke-miterlimit: 10;
        stroke-width: 4px;
      }

      .cls-12 {
        fill: #fff4d7;
      }

      .cls-13 {
        stroke-miterlimit: 10;
        stroke-width: 4px;
      }

      .cls-14 {
        stroke-miterlimit: 10;
        stroke-width: 4px;
      }
    </style>
  </defs>
  <g id="Layer_4" data-name="Layer 4">
    <path class="cls-5" d="M62.6047,318.6042c-1.3289-2.6936-.9425-5.6105-.4192-7.6075l6.2124-17.6118c1.8224-5.1664,7.5406-7.9025,12.707-6.0801l5.4507,1.9227c5.1664,1.8224,7.9025,7.5406,6.0801,12.707-1.2964,3.6751-3.9437,5.7403-3.1333,8.8827,.7207,2.7944,3.6506,2.6414,5.4831,5.6168,2.6201,4.2542,1.2029,11.9911-2.8205,14.3207-2.2548,1.3056-3.542-.1212-17.2676-5.2102-7.5631-2.8042-10.6798-3.6714-12.2926-6.9404h0Z"/>
    <path class="cls-5" d="M18.9233,326.94c-1.601-3.245-1.1355-6.7591-.505-9.1649l7.4842-21.2174c2.1955-6.2241,9.0843-9.5203,15.3084-7.3248l6.5666,2.3163c6.2241,2.1955,9.5203,9.0843,7.3248,15.3084-1.5618,4.4275-4.7511,6.9154-3.7747,10.7012,.8682,3.3664,4.3979,3.1821,6.6056,6.7667,3.1565,5.1252,1.4492,14.4459-3.3979,17.2525-2.7164,1.5729-4.2671-.146-20.8027-6.2768-9.1115-3.3782-12.8662-4.423-14.8092-8.3612h0Z"/>
    <rect class="cls-6" x="47.1043" y="234.9337" width="97.8692" height="32.1998" rx="12" ry="12" transform="translate(-172.6457 258.0963) rotate(-70.5702)"/>
    <rect class="cls-11" x="5.8885" y="231.5724" width="105.3705" height="37.8086" rx="12" ry="12" transform="translate(-197.123 222.3936) rotate(-70.5703)"/>
    <path class="cls-5" d="M8.8835,209.2406l31.1438,5.8178c.6671-1.747,4.0614-11.1525-.7106-20.8952-2.8814-5.883-7.367-9.085-9.552-10.4354-2.101,.1034-8.3585,.6884-13.75,5.5058-8.4843,7.5809-7.2697,18.8931-7.1312,20.0071h0Z"/>
  </g>
  <g id="Layer_5" data-name="Layer 5">
    <rect class="cls-10" x="-8.5062" y="92.2752" width="127.1146" height="88.2559" rx="12" ry="12" transform="translate(-89.1415 165.4709) rotate(-79.4189)"/>
    <path class="cls-3" d="M34.2115,67.8536h0c6.0017,1.1211,9.9582,6.8954,8.8371,12.8971l-3.7967,20.3243c-1.1211,6.0017-6.8954,9.9582-12.8971,8.8371h0c-6.0017-1.1211-9.9582-6.8954-8.8371-12.8971l3.7967-20.3243c1.1211-6.0017,6.8954-9.9582,12.8971-8.8371Z"/>
    <line class="cls-1" x1="26.7154" y1="107.9812" x2="11.2304" y2="190.8758"/>
  </g>
  <g id="running2">
    <path class="cls-5" d="M99.5375,193.5808c-.1501,.4394-2.2498,6.772,.2029,8.6835,2.0546,1.6012,6.0771-.8561,6.7588,.2648,.7137,1.1734-3.7818,3.7225-3.4544,6.7641,.3141,2.9181,5.0229,5.8736,8.715,5.158,6.7023-1.299,8.0225-14.3014,8.1034-15.1887,.4987-5.4682-.2631-16.2807-5.9332-17.9723-5.3772-1.6042-12.2026,5.8792-14.3926,12.2906h0Z"/>
    <rect class="cls-10" x="68.3177" y="125.9408" width="102.9166" height="30.1943" rx="12" ry="12" transform="translate(-40.8579 232.879) rotate(-79.4189)"/>
  </g>
  <g id="Layer_2" data-name="Layer 2">
    <rect class="cls-14" x="30.81" y="112.2589" width="127.1146" height="88.2559" rx="12" ry="12" transform="translate(-69.6507 236.7616) rotate(-84.9988)"/>
    <ellipse class="cls-9" cx="109.2744" cy="53.1359" rx="45.3566" ry="51.1743" transform="translate(-4.1772 9.6267) rotate(-4.9498)"/>
    <line class="cls-1" x1="114.9204" y1="104.5625" x2="96.0389" y2="219.7022"/>
  </g>
  <g id="Layer_6" data-name="Layer 6">
    <line class="cls-1" x1="39.2519" y1="101.075" x2="21.117" y2="193.3537"/>
    <path class="cls-7" d="M139.5448,146.3189c-10.2685,.0247-20.537,.0493-30.8055,.074l1.9114-12.8807,29.7868,2.6067-.8926,10.2h-.0001Z"/>
    <path class="cls-5" d="M56.5744,204.4974c-.0891,.5541-1.4416,8.5047-5.1442,9.1529-3.1016,.5431-6.0004-4.3622-7.3642-3.5528-1.4276,.8474,1.924,6.1192-.1514,9.1797-1.9912,2.9363-8.6941,3.4188-12.2288,.5598-6.4164-5.1898-.4471-19.8168-.03-20.8097,2.5708-6.1194,9.5196-17.2275,16.5313-15.8155,6.6495,1.3391,9.6879,13.1996,8.3872,21.2854v.0002Z"/>
  </g>
  <g id="Layer_3" data-name="Layer 3">
    <rect class="cls-13" x="6.7943" y="127.3552" width="106.9324" height="33.715" rx="12" ry="12" transform="translate(-95.003 162.1535) rotate(-73.9133)"/>
    <ellipse class="cls-2" cx="122.077" cy="49.4694" rx="27.4119" ry="32.318" transform="translate(-3.8131 10.7176) rotate(-4.9498)"/>
    <path class="cls-8" d="M141.64,35.425c-2.7587-.3988-5.9702-.6783-9.547-.653-4.3508,.0307-8.1825,.5049-11.3555,1.1041-.9292-.0843-1.6244-.9184-1.5401-1.8476,.0845-.9316,.9159-1.6246,1.8475-1.5401,3.668-.4173,7.0273-.5473,10.0211-.5137,3.6052,.0404,11.1513,.1251,11.4912,1.9679,.0919,.4985-.3615,1.0276-.9172,1.4822v.0002Z"/>
    <polygon class="cls-7" points="52.3699 111.4824 84.3935 122.1121 79.5815 138.7982 47.3255 128.9747 52.3699 111.4824"/>
    <path class="cls-7" d="M46.9904,137.5203c10.1058,3.054,20.2116,6.108,30.3174,9.162l-3.2798,11.3729-32.5165-8.9202c1.8263-3.8716,3.6525-7.7431,5.4788-11.6147h0Z"/>
    <path class="cls-12" d="M31.3904,231.9775c1.6287,8.3539-2.6499,15.418-7.2141,22.9536-3.3623,5.5512-11.0717,18.2796-16.6489,16.0043-5.2555-2.1441-5.5158-16.346-5.6364-22.9285-.1741-9.5019-.3716-20.2747,5.9751-26.1758,3.6289-3.3742,9.3086-5.0733,14.5599-2.541,4.7976,2.3136,7.9616,7.5437,8.9644,12.6875h0Z"/>
    <path class="cls-4" d="M28.099,228.9162c1.0802,5.5403-1.7574,10.2252-4.7844,15.2229-2.2299,3.6815-7.3427,12.1231-11.0415,10.614-3.4854-1.422-3.6581-10.8406-3.7381-15.2061-.1155-6.3016-.2464-13.4461,3.9627-17.3599,2.4067-2.2378,6.1734-3.3647,9.6561-1.6852,3.1818,1.5343,5.2801,5.0029,5.9452,8.4143Z"/>
  </g>
</svg>