<?xml version="1.0" encoding="utf-8"?>
<!-- Generator: Adobe Illustrator 27.0.0, SVG Export Plug-In . SVG Version: 6.00 Build 0)  -->
<svg version="1.1" xmlns="http://www.w3.org/2000/svg" xmlns:xlink="http://www.w3.org/1999/xlink" x="0px" y="0px"
	 viewBox="0 0 237.6 378" style="enable-background:new 0 0 237.6 378;" xml:space="preserve">
<style type="text/css">
	.st0{fill:#D4E6FF;stroke:#000000;stroke-width:4;stroke-miterlimit:10;}
	.st1{fill:#FFFFFF;stroke:#000000;stroke-width:4;stroke-miterlimit:10;}
	.st2{fill:#D4E6FF;stroke:#000000;stroke-width:2;stroke-miterlimit:10;}
	.st3{fill:#FFFFFF;stroke:#000000;stroke-miterlimit:10;}
</style>
<g id="Layer_4">
	<path class="st0" d="M162.5,357.5c-2.6-1.4-4-4.1-4.7-6l-5-18c-1.5-5.3,1.6-10.8,6.9-12.3l5.6-1.6c5.3-1.5,10.8,1.6,12.3,6.9
		c1.1,3.8,0.1,7,2.5,9.1c2.2,1.9,4.5,0.1,7.7,1.4c4.6,2,7.9,9.1,5.9,13.3c-1.1,2.4-3,1.9-17.1,5.7
		C168.8,358.2,165.7,359.3,162.5,357.5z"/>
	<path class="st0" d="M64,355.6c-1.6-3.2-1.1-6.8-0.5-9.2l7.5-21.2c2.2-6.2,9.1-9.5,15.3-7.3l6.6,2.3c6.2,2.2,9.5,9.1,7.3,15.3
		c-1.6,4.4-4.8,6.9-3.8,10.7c0.9,3.4,4.4,3.2,6.6,6.8c3.2,5.1,1.4,14.4-3.4,17.3c-2.7,1.6-4.3-0.1-20.8-6.3
		C69.7,360.6,65.9,359.6,64,355.6z"/>
	<path class="st1" d="M168.2,329l-7.9,2.2c-6.4,1.8-13-2-14.8-8.3l-19.9-71.1c-1.8-6.4,2-13,8.3-14.8l7.9-2.2c6.4-1.8,13,2,14.8,8.3
		l19.9,71.1C178.3,320.6,174.6,327.3,168.2,329z"/>
	<path class="st1" d="M92.6,331.1l-13-4.6c-6.2-2.2-9.5-9.1-7.3-15.3l27.1-76.7c2.2-6.2,9.1-9.5,15.3-7.3l13,4.6
		c6.2,2.2,9.5,9.1,7.3,15.3l-27.1,76.7C105.7,330,98.8,333.3,92.6,331.1z"/>
	<path class="st0" d="M55.8,245h31.7c0.3-1.8,1.9-11.7-4.5-20.4c-3.9-5.3-8.9-7.6-11.3-8.5c-2,0.5-8.1,2.2-12.5,7.9
		C52.2,233,55.4,243.9,55.8,245z"/>
</g>
<g id="Layer_7">
</g>
<g id="Layer_5">
	<path class="st1" d="M119.9,228.5H55.7c-6.6,0-12-5.4-12-12V113.3c0-6.6,5.4-12,12-12h64.3c6.6,0,12,5.4,12,12v103.1
		C131.9,223.1,126.5,228.5,119.9,228.5z"/>
	<path class="st0" d="M54.7,144.1L54.7,144.1c-6.1,0-11.1-5-11.1-11.1v-20.7c0-6.1,5-11.1,11.1-11.1h0c6.1,0,11.1,5,11.1,11.1v20.7
		C65.8,139.2,60.8,144.1,54.7,144.1z"/>
	<line class="st1" x1="54.7" y1="142.2" x2="54.7" y2="226.5"/>
</g>
<g id="running2">
	<path class="st0" d="M140.3,222.9c-0.2,0.4-2.2,6.8,0.2,8.7c2.1,1.6,6.1-0.9,6.8,0.3c0.7,1.2-3.8,3.7-3.5,6.8
		c0.3,2.9,5,5.9,8.7,5.2c6.7-1.3,8-14.3,8.1-15.2c0.5-5.5-0.3-16.3-5.9-18C149.3,209,142.5,216.5,140.3,222.9z"/>
	<path class="st1" d="M154.2,221.5l-6.1-1.1c-6.5-1.2-10.8-7.5-9.6-14l14.5-77.6c1.2-6.5,7.5-10.8,14-9.6l6.1,1.1
		c6.5,1.2,10.8,7.5,9.6,14l-14.5,77.6C166.9,218.4,160.6,222.7,154.2,221.5z"/>
</g>
<g id="Layer_2">
	<path class="st1" d="M161.6,245H97.4c-6.6,0-12-5.4-12-12V129.9c0-6.6,5.4-12,12-12h64.3c6.6,0,12,5.4,12,12V233
		C173.6,239.6,168.2,245,161.6,245z"/>
	<ellipse class="st1" cx="133.1" cy="77.5" rx="45.4" ry="51.2"/>
	<line class="st1" x1="138.3" y1="128.6" x2="129.5" y2="245"/>
</g>
<g id="Layer_6">
	<line class="st1" x1="65.8" y1="133.1" x2="64.9" y2="227.1"/>
	<path class="st2" d="M173.6,167.4c-12.8,0.9-25.7,1.8-38.5,2.8l1-13h37.5C173.6,160.6,173.6,164,173.6,167.4z"/>
	<path class="st0" d="M140.5,219.4c0.3,0.5,3.9,7.7,1.3,10.4c-2.2,2.3-7.4,0.1-8,1.5c-0.6,1.5,5.2,3.8,5.4,7.5
		c0.2,3.5-4.9,7.9-9.5,7.7c-8.2-0.3-12.2-15.6-12.4-16.7c-1.6-6.4-2.6-19.5,3.8-22.6C127.2,204.4,136.7,212.1,140.5,219.4z"/>
</g>
<g id="Layer_3">
	<path class="st1" d="M130.8,217.2l-9.1,3.4c-6.2,2.3-13.1-0.8-15.4-7l-29.1-77.7c-2.3-6.2,0.8-13.1,7-15.4l9.1-3.4
		c6.2-2.3,13.1,0.8,15.4,7l29.1,77.7C140.1,207.9,137,214.9,130.8,217.2z"/>
	<ellipse class="st2" cx="146.2" cy="74.9" rx="27.4" ry="32.3"/>
	<path class="st3" d="M166.9,62.6c-2.7-0.6-5.9-1.2-9.5-1.5c-4.3-0.3-8.2-0.2-11.4,0.1c-0.9-0.2-1.5-1.1-1.4-2
		c0.2-0.9,1.1-1.5,2-1.4c3.7-0.1,7,0.1,10,0.4c3.6,0.4,11.1,1.1,11.3,3C168,61.7,167.5,62.2,166.9,62.6z"/>
	<polygon class="st2" points="81.6,147.3 113.6,136.7 119.7,152.9 88,164.3 	"/>
	<path class="st2" d="M92.8,171.4c9.9-3.6,19.9-7.2,29.8-10.7l4.2,11.1L95.4,184C94.5,179.8,93.7,175.6,92.8,171.4z"/>
</g>
</svg>
