<?xml version="1.0" encoding="UTF-8"?>
<svg xmlns="http://www.w3.org/2000/svg" viewBox="0 0 176.4729 343.135">
  <defs>
    <style>
      .cls-1, .cls-2 {
        fill: #d4e6ff;
      }

      .cls-1, .cls-2, .cls-3, .cls-4 {
        stroke: #000;
        stroke-miterlimit: 10;
      }

      .cls-1, .cls-3 {
        stroke-width: 4px;
      }

      .cls-2 {
        stroke-width: 2px;
      }

      .cls-3, .cls-4 {
        fill: #fff;
      }
    </style>
  </defs>
  <g id="Layer_4" data-name="Layer 4">
    <path class="cls-1" d="M57.4998,324.0469c-1.3289-2.6936-.9425-5.6105-.4192-7.6075l6.2124-17.6118c1.8224-5.1664,7.5406-7.9025,12.707-6.0801l5.4507,1.9227c5.1664,1.8224,7.9025,7.5406,6.0801,12.707-1.2964,3.6751-3.9437,5.7403-3.1333,8.8827,.7207,2.7944,3.6506,2.6414,5.4831,5.6168,2.6201,4.2542,1.2029,11.9911-2.8205,14.3207-2.2548,1.3056-3.542-.1212-17.2676-5.2102-7.5631-2.8041-10.6798-3.6714-12.2927-6.9404Z"/>
    <path class="cls-1" d="M94.3775,340.0813c-3.1755-1.7347-4.8149-4.8776-5.6822-7.2086l-6.0741-21.6632c-1.7818-6.3549,1.9598-13.0123,8.3147-14.7941l6.7046-1.8799c6.3549-1.7818,13.0123,1.9598,14.7941,8.3147,1.2675,4.5206,.0883,8.3898,3.0635,10.9261,2.6458,2.2554,5.4279,.0753,9.295,1.7391,5.5292,2.3789,9.4907,10.9869,7.1382,16.0699-1.3184,2.8486-3.5754,2.3337-20.6298,6.8236-9.3974,2.4741-13.0702,3.7778-16.9241,1.6725Z"/>
    <rect class="cls-3" x="74.8341" y="207.5418" width="32.1998" height="97.8692" rx="12" ry="12" transform="translate(90.4957 -15.643) rotate(19.4297)"/>
    <rect class="cls-3" x="63.9573" y="202.0371" width="37.8086" height="105.3705" rx="12" ry="12" transform="translate(-65.6922 31.8293) rotate(-15.6629)"/>
    <path class="cls-1" d="M14.1204,220.696h31.6825c.3349-1.8398,1.9444-11.7086-4.5354-20.4095-3.9127-5.2538-8.91-7.5777-11.3058-8.5039-2.0462,.4874-8.09,2.2115-12.5052,7.937-6.948,9.0099-3.6768,19.9067-3.3361,20.9764Z"/>
  </g>
  <g id="Layer_5" data-name="Layer 5">
    <rect class="cls-3" x="2" y="77.0622" width="88.2559" height="127.1146" rx="12" ry="12"/>
    <rect class="cls-1" x="2" y="77.0622" width="22.1102" height="42.7861" rx="11.0551" ry="11.0551"/>
    <line class="cls-3" x1="13.0551" y1="117.884" x2="13.0551" y2="202.2125"/>
  </g>
  <g id="running2">
    <path class="cls-1" d="M150.582,196.4832c.1438,.4415,2.2673,6.7662,5.3764,6.8219,2.6045,.0466,4.3455-4.3336,5.5637-3.8467,1.2753,.5097-.7888,5.2476,1.2993,7.4831,2.0034,2.1448,7.5434,1.6808,10.0662-1.1085,4.5795-5.0633-2.1723-16.2534-2.6404-17.0114-2.8847-4.6721-9.9864-12.8609-15.5363-10.8089-5.2631,1.946-6.2275,12.0286-4.1289,18.4705Z"/>
    <rect class="cls-3" x="120.1184" y="90.8565" width="30.1943" height="102.9166" rx="12" ry="12" transform="translate(-49.0852 74.7132) rotate(-26.3222)"/>
  </g>
  <g id="Layer_2" data-name="Layer 2">
    <rect class="cls-3" x="43.7117" y="93.5814" width="88.2559" height="127.1146" rx="12" ry="12"/>
    <ellipse class="cls-3" cx="91.4845" cy="53.1743" rx="45.3566" ry="51.1743"/>
    <path class="cls-1" d="M33.538,205.3937c-.1213,.548-1.9351,8.4061-5.6691,8.8374-3.128,.3613-5.7358-4.7047-7.1445-3.9761-1.4746,.7627,1.5639,6.221-.6865,9.1552-2.159,2.8152-8.8787,2.906-12.2406-.1542-6.1029-5.5552,.7093-19.8091,1.1836-20.776,2.9232-5.9591,10.508-16.6431,17.4255-14.8246,6.5601,1.7246,8.9017,13.742,7.1317,21.7383Z"/>
  </g>
  <g id="Layer_6" data-name="Layer 6">
    <line class="cls-3" x1="24.1102" y1="108.7931" x2="23.2286" y2="140.6195"/>
    <line class="cls-3" x1="96.6117" y1="104.3486" x2="87.8396" y2="220.696"/>
    <path class="cls-2" d="M131.9676,143.1706c-12.8303,.9198-25.6606,1.8395-38.491,2.7593l.98-12.9982h37.5109v10.239Z"/>
  </g>
  <g id="Layer_3" data-name="Layer 3">
    <rect class="cls-3" x="23.8757" y="91.9603" width="33.715" height="106.9324" rx="12" ry="12" transform="translate(50.6959 -5.2679) rotate(19.4297)"/>
    <ellipse class="cls-2" cx="104.5556" cy="50.6262" rx="27.4119" ry="32.318"/>
    <path class="cls-4" d="M125.2575,38.3219c-2.714-.6353-5.8894-1.1908-9.4551-1.4743-4.3372-.3448-8.1955-.203-11.4084,.1202-.9185-.1642-1.5391-1.0551-1.3749-1.9736,.1646-.9208,1.0527-1.5396,1.9735-1.3749,3.6903-.0992,7.0483,.0611,10.0281,.3529,3.5882,.3513,11.0989,1.0868,11.2786,2.9521,.0486,.5046-.4488,.9925-1.0417,1.3975Z"/>
    <polygon class="cls-2" points="34.7647 112.2918 66.1139 124.7707 60.3371 141.1478 28.7088 129.4602 34.7647 112.2918"/>
    <path class="cls-2" d="M27.8759,137.9716c9.9105,3.6381,19.8211,7.2762,29.7316,10.9143l-3.9374,11.1623-31.941-10.8012c2.0489-3.7585,4.0979-7.517,6.1468-11.2754Z"/>
  </g>
</svg>