<?xml version="1.0" encoding="utf-8"?>
<!-- Generator: Adobe Illustrator 27.0.0, SVG Export Plug-In . SVG Version: 6.00 Build 0)  -->
<svg version="1.1" xmlns="http://www.w3.org/2000/svg" xmlns:xlink="http://www.w3.org/1999/xlink" x="0px" y="0px"
	 viewBox="0 0 792 612" style="enable-background:new 0 0 792 612;" xml:space="preserve">
<style type="text/css">
	.st0{fill:#43435B;}
	.st1{fill:#E5E5F9;}
	.st2{fill:#B2A1A1;stroke:#000000;stroke-width:3;stroke-miterlimit:10;}
	.st3{fill:#DDCCCC;stroke:#000000;stroke-width:3;stroke-miterlimit:10;}
	.st4{fill:#DDCCCC;}
	.st5{stroke:#000000;stroke-width:4;stroke-miterlimit:10;}
</style>
<g id="Layer_4_00000018948150039911122020000011723046610522251166_">
	<rect x="-20.2" y="0.8" class="st0" width="830" height="411.6"/>
	<polygon class="st1" points="347.3,174.9 341.3,173.6 336.9,177.9 336.2,171.8 330.8,168.9 336.4,166.3 337.4,160.3 341.6,164.8 
		347.7,164 344.6,169.3 	"/>
	<polygon class="st1" points="768.2,40.8 762.2,42.1 759.8,47.8 756.7,42.5 750.5,42 754.6,37.4 753.2,31.3 758.8,33.8 764.1,30.6 
		763.5,36.7 	"/>
	<polygon class="st1" points="621.4,72.4 613.3,73 609.3,80 606.2,72.5 598.2,70.8 604.4,65.6 603.6,57.5 610.5,61.7 617.9,58.5 
		616,66.3 	"/>
	<polygon class="st1" points="83.6,295 78.6,293.3 74.3,296.5 74.4,291.2 70,288.1 75.1,286.5 76.7,281.4 79.7,285.8 85.1,285.7 
		81.9,290 	"/>
	<polygon class="st1" points="403.4,65.6 397.3,64.4 392.9,68.8 392.2,62.6 386.7,59.7 392.3,57.1 393.3,51 397.5,55.5 403.7,54.6 
		400.7,60.1 	"/>
	<polygon class="st1" points="189.1,91.9 181.9,89.1 175.5,93.5 175.9,85.7 169.7,80.9 177.2,78.9 179.9,71.6 184.1,78.1 
		191.9,78.4 187,84.4 	"/>
	<polygon class="st1" points="283.9,243.2 281.2,241.2 278,242.3 279.1,239.1 277.1,236.4 280.5,236.4 282.4,233.7 283.4,236.9 
		286.6,237.9 283.9,239.9 	"/>
	<polygon class="st1" points="550.1,162.1 547.1,159.3 543.1,160.2 544.8,156.5 542.6,152.9 546.7,153.4 549.4,150.3 550.3,154.3 
		554.1,155.9 550.5,158 	"/>
	<polygon class="st1" points="452,252.8 446.1,249.3 439.8,252.2 441.3,245.4 436.6,240.3 443.5,239.7 446.9,233.6 449.6,240 
		456.5,241.4 451.2,245.9 	"/>
	<polygon class="st1" points="759.4,173.2 751.9,173.4 747.8,179.6 745.3,172.5 738.1,170.6 744.1,166 743.7,158.6 749.8,162.8 
		756.8,160.2 754.7,167.4 	"/>
	<polygon class="st1" points="83.7,138.6 81.3,137.4 79,138.5 79.4,136 77.5,134.2 80.2,133.9 81.4,131.6 82.6,133.9 85.2,134.3 
		83.3,136.1 	"/>
	<polygon class="st1" points="640.5,262.4 632.9,259.6 626.3,264.2 626.6,256.1 620.2,251.3 628,249.1 630.6,241.5 635.1,248.2 
		643.2,248.4 638.1,254.7 	"/>
	<polygon class="st1" points="36,39.3 31.5,35.2 25.5,36.6 28,31 24.8,25.8 30.9,26.5 34.9,21.8 36.2,27.8 41.8,30.2 36.5,33.2 	"/>
	<polygon class="st1" points="629.2,182.1 627.6,180.4 625.2,180.8 626.3,178.7 625.2,176.6 627.5,177 629.2,175.3 629.5,177.6 
		631.7,178.7 629.6,179.7 	"/>
	<polygon class="st1" points="162.1,215.1 155,212.7 149,217.1 149.1,209.7 143.1,205.4 150.2,203.2 152.4,196 156.7,202.1 
		164.1,202 159.7,208 	"/>
</g>
<g id="Layer_2">
	<path class="st2" d="M504.6,334.9"/>
</g>
<g id="Layer_1">
	<g id="Layer_2_00000121969031019947342350000010200981882704429708_">
		<path class="st3" d="M0,366.2c3.2-3.2,8.6-7.7,16.3-9.1c2.1-0.4,5.4-0.7,16.8,1.6c17.4,3.5,20.3,6.4,27.2,5.3
			c3.9-0.6,9.6-2.5,16-9.1c2.8,3.2,8.6,9.1,17.8,11.6c13,3.5,24.4-2,27.5-3.6c10.8-5.7,11.6-12.7,18.8-13.1
			c7.1-0.4,10.9,6.2,17.5,10.8c7.8,5.5,21.2,9.3,45.4,2.4c17.8,0.3,31.4-2.2,40.8-4.6c6.2-1.6,11.4-3.5,20.4-4.5
			c7.2-0.9,16.4-1.9,27.2,1.1c7.7,2.1,13.5,5.5,17,7.9c29.9-0.6,59.8-1.1,89.7-1.7c3.3-0.1,9,0,16.4,0.6c2.6,0.2,9.1,0.8,18.6,2.4
			c11.8,2,15.1,3.3,20.4,4.2c8.1,1.3,10.9-0.1,38.6-5.4c21.4-4.1,32.2-6.2,38.5-5.7c7.6,0.5,13,2,23.3,1.1
			c9.4-0.8,11.8-2.5,18.6-3.4c17.3-2.3,25,5.9,37.4,6.8c10,0.8,24.4-3.1,43.1-23.8c8.3,4.9,16.6,9.8,24.9,14.7
			c15.6,8.3,28.4,10.1,37.4,10.2c19,0.1,28.3-7.5,47.6-5.7c12.3,1.2,22.1,5.6,28.5,9.1V612H0V366.2z"/>
	</g>
	<g id="Layer_4">
		<rect x="-31.3" y="368.2" class="st4" width="830" height="254.4"/>
	</g>
	<ellipse class="st2" cx="155.1" cy="466.2" rx="69.9" ry="13.3"/>
	<ellipse class="st2" cx="446.5" cy="430.4" rx="49" ry="10.3"/>
	<path class="st4" d="M383.7,505.7"/>
	<line class="st3" x1="514.6" y1="456" x2="494.6" y2="425.4"/>
	<ellipse class="st2" cx="682.7" cy="574.8" rx="72.9" ry="12.8"/>
	<line class="st2" x1="768.2" y1="595.1" x2="755.6" y2="574.8"/>
	<line class="st2" x1="598.2" y1="595.1" x2="609.8" y2="574.8"/>
	<ellipse class="st2" cx="346.7" cy="363.9" rx="72.9" ry="12.8"/>
</g>
<g id="Layer_3">
	<line class="st5" x1="84.3" y1="468.8" x2="55.7" y2="525.2"/>
	<line class="st5" x1="398.2" y1="427.7" x2="369.2" y2="453.7"/>
	<line class="st5" x1="224.9" y1="470.4" x2="241.2" y2="518.1"/>
</g>
</svg>
