<?xml version="1.0" encoding="utf-8"?>
<!-- Generator: Adobe Illustrator 27.0.0, SVG Export Plug-In . SVG Version: 6.00 Build 0)  -->
<svg version="1.1" xmlns="http://www.w3.org/2000/svg" xmlns:xlink="http://www.w3.org/1999/xlink" x="0px" y="0px"
	 viewBox="0 0 792 612" style="enable-background:new 0 0 792 612;" xml:space="preserve">
<style type="text/css">
	.st0{fill:#43435B;}
	.st1{fill:#E5E5F9;}
	.st2{fill:#DDCCCC;stroke:#000000;stroke-width:3;stroke-miterlimit:10;}
	.st3{fill:#DDCCCC;}
	.st4{fill:#B2A1A1;stroke:#000000;stroke-width:3;stroke-miterlimit:10;}
	.st5{stroke:#000000;stroke-width:4;stroke-miterlimit:10;}
</style>
<g id="Layer_4_00000018948150039911122020000011723046610522251166_">
	<rect x="-12.1" y="-7" class="st0" width="830" height="411.6"/>
	<polygon class="st1" points="97.9,88.3 91.9,87.1 87.5,91.3 86.8,85.2 81.4,82.3 87,79.8 88,73.7 92.2,78.3 98.3,77.4 95.2,82.8 	
		"/>
	<polygon class="st1" points="256.7,224.1 250.6,225.5 248.2,231.2 245.1,225.8 238.9,225.4 243.1,220.7 241.6,214.7 247.3,217.2 
		252.6,214 251.9,220.1 	"/>
	<polygon class="st1" points="158.6,180.4 150.6,181 146.5,188 143.4,180.5 135.5,178.8 141.6,173.6 140.8,165.5 147.7,169.7 
		155.1,166.4 153.2,174.3 	"/>
	<polygon class="st1" points="392.7,182.8 387.7,181.1 383.4,184.3 383.5,179 379.1,175.9 384.2,174.3 385.8,169.2 388.9,173.6 
		394.2,173.5 391,177.8 	"/>
	<polygon class="st1" points="403.4,65.6 397.3,64.4 392.9,68.8 392.2,62.6 386.7,59.7 392.3,57.1 393.3,51 397.5,55.5 403.7,54.6 
		400.7,60.1 	"/>
	<polygon class="st1" points="167,290.8 159.7,288 153.3,292.4 153.7,284.6 147.6,279.8 155.1,277.8 157.7,270.5 161.9,277.1 
		169.7,277.3 164.8,283.3 	"/>
	<polygon class="st1" points="258.7,87.3 256,85.3 252.8,86.3 253.9,83.1 251.9,80.4 255.3,80.5 257.2,77.8 258.2,81 261.4,82 
		258.7,83.9 	"/>
	<polygon class="st1" points="607,51 604,48.2 600,49.1 601.7,45.4 599.5,41.9 603.6,42.3 606.3,39.2 607.2,43.2 611,44.8 
		607.4,46.9 	"/>
	<polygon class="st1" points="510.1,144.7 504.1,141.1 497.8,144 499.4,137.3 494.7,132.1 501.6,131.5 505,125.5 507.7,131.9 
		514.5,133.2 509.3,137.8 	"/>
	<polygon class="st1" points="594.6,232.1 587.1,232.2 583,238.5 580.5,231.4 573.3,229.4 579.2,224.9 578.9,217.4 585,221.7 
		592,219.1 589.9,226.2 	"/>
	<polygon class="st1" points="733.5,72.3 731.2,71.1 728.8,72.2 729.3,69.7 727.4,67.9 730,67.6 731.2,65.3 732.4,67.6 735,68 
		733.1,69.7 	"/>
	<polygon class="st1" points="688.1,248.1 680.6,245.2 673.9,249.9 674.3,241.8 667.8,236.9 675.6,234.7 678.3,227.1 682.7,233.8 
		690.8,234 685.8,240.3 	"/>
	<polygon class="st1" points="65,247 60.5,242.9 54.5,244.3 57,238.8 53.9,233.5 59.9,234.2 63.9,229.5 65.2,235.5 70.8,237.9 
		65.5,240.9 	"/>
	<polygon class="st1" points="395,262.9 393.3,261.2 391,261.6 392.1,259.5 390.9,257.4 393.3,257.8 394.9,256.1 395.3,258.4 
		397.4,259.5 395.3,260.5 	"/>
	<polygon class="st1" points="655.9,174.7 648.8,172.3 642.8,176.8 642.9,169.3 636.8,165 644,162.8 646.2,155.7 650.5,161.7 
		657.9,161.7 653.5,167.6 	"/>
</g>
<g id="Layer_2">
</g>
<g id="Layer_1">
	<g id="Layer_2_00000121969031019947342350000010200981882704429708_">
		<path class="st2" d="M0,366.2c12.2-3.4,24.5-6.8,36.7-10.3c20.7,7,31.8,10.7,31.8,10.7l0,0c0,0,40.7-0.5,83.5-1
			c17.1-0.9,34.3-1.9,51.4-2.8c12.8,6.4,25.7,12.8,38.5,19.2c13.4,3.1,30.8,5.7,51,5.7c17.2-0.1,32.1-2.1,44.2-4.5
			c20.4-7.4,40.9-14.7,61.3-22.1c5.5,0.2,10.9,0.4,16.4,0.6c26.7,0.9,53.3,1.8,80,2.8c34.4-1.1,68.7-2.2,103.1-3.4
			c26.4,1.4,52.8,2.8,79.2,4.2c12.1-8,24.3-16,36.4-24.1c12.8,8.2,25.7,16.4,38.5,24.6c13.3,0.1,26.6,0.3,39.9,0.4V612H0V366.2z"/>
	</g>
	<g id="Layer_4">
		<rect x="-31.3" y="368.2" class="st3" width="830" height="254.4"/>
	</g>
	<ellipse class="st4" cx="207.7" cy="457.3" rx="49" ry="10.3"/>
	<ellipse class="st4" cx="334.7" cy="505.7" rx="49" ry="10.3"/>
	<ellipse class="st4" cx="636.8" cy="446" rx="74.9" ry="16.5"/>
	<path class="st4" d="M403.7,368.2c-0.1,8.5-54.6,16.4-102.5,16.5c-47.7,0.1-102.2-7.6-102.5-16.5c-0.1-3,6.1-5.5,9.7-7
		c16.2-6.7,32.6-1.4,39.1,0.4c31.3,8.9,76.5,8.9,105.4,0c4.4-1.4,17.4-5.7,32.9-2.3C391.4,360.5,403.8,364.1,403.7,368.2z"/>
	<path class="st3" d="M383.7,505.7"/>
	<line class="st2" x1="401.7" y1="531.6" x2="381.7" y2="501"/>
</g>
<g id="Layer_3">
	<line class="st5" x1="562" y1="446" x2="533.3" y2="544.1"/>
	<line class="st5" x1="285.7" y1="505.7" x2="256.7" y2="531.6"/>
	<line class="st5" x1="256.7" y1="457.3" x2="317.9" y2="495.1"/>
	<line class="st5" x1="711.7" y1="446" x2="744.2" y2="566.8"/>
	<line class="st5" x1="158.6" y1="457.3" x2="108.1" y2="506.4"/>
</g>
</svg>
