<?xml version="1.0" encoding="utf-8"?>
<!-- Generator: Adobe Illustrator 27.0.0, SVG Export Plug-In . SVG Version: 6.00 Build 0)  -->
<svg version="1.1" xmlns="http://www.w3.org/2000/svg" xmlns:xlink="http://www.w3.org/1999/xlink" x="0px" y="0px"
	 viewBox="0 0 792 612" style="enable-background:new 0 0 792 612;" xml:space="preserve">
<style type="text/css">
	.st0{fill:#43435B;}
	.st1{fill:#E5E5F9;}
	.st2{fill:#B2A1A1;stroke:#000000;stroke-width:3;stroke-miterlimit:10;}
	.st3{fill:#DDCCCC;stroke:#000000;stroke-width:3;stroke-miterlimit:10;}
	.st4{fill:#DDCCCC;}
	.st5{fill:#FFFFFF;stroke:#000000;stroke-width:3;stroke-miterlimit:10;}
</style>
<g id="Layer_4_00000018948150039911122020000011723046610522251166_">
	<rect x="-12.1" y="-7" class="st0" width="830" height="411.6"/>
	<polygon class="st1" points="97.9,88.3 91.9,87.1 87.5,91.3 86.8,85.2 81.4,82.3 87,79.8 88,73.7 92.2,78.3 98.3,77.4 95.2,82.8 	
		"/>
	<polygon class="st1" points="124,166.5 117.9,167.8 115.6,173.6 112.4,168.2 106.3,167.8 110.4,163.1 108.9,157.1 114.6,159.6 
		119.9,156.3 119.3,162.5 	"/>
	<polygon class="st1" points="273.7,114.4 265.6,115 261.5,122 258.4,114.5 250.5,112.8 256.7,107.6 255.8,99.5 262.7,103.7 
		270.1,100.5 268.3,108.3 	"/>
	<polygon class="st1" points="353,190.3 348,188.6 343.7,191.8 343.8,186.5 339.5,183.4 344.5,181.8 346.1,176.8 349.2,181.1 
		354.5,181 351.3,185.3 	"/>
	<polygon class="st1" points="403.4,65.6 397.3,64.4 392.9,68.8 392.2,62.6 386.7,59.7 392.3,57.1 393.3,51 397.5,55.5 403.7,54.6 
		400.7,60.1 	"/>
	<polygon class="st1" points="499.3,165 492,162.2 485.6,166.5 486,158.8 479.9,154 487.4,152 490,144.7 494.2,151.2 502,151.5 
		497.1,157.5 	"/>
	<polygon class="st1" points="221.5,236.8 218.8,234.8 215.6,235.8 216.7,232.7 214.7,230 218.1,230 220.1,227.3 221.1,230.5 
		224.3,231.5 221.5,233.5 	"/>
	<polygon class="st1" points="607,51 604,48.2 600,49.1 601.7,45.4 599.5,41.9 603.6,42.3 606.3,39.2 607.2,43.2 611,44.8 
		607.4,46.9 	"/>
	<polygon class="st1" points="633.1,144.7 627.1,141.1 620.8,144 622.4,137.3 617.7,132.1 624.6,131.5 628,125.5 630.7,131.9 
		637.5,133.2 632.3,137.8 	"/>
	<polygon class="st1" points="594.6,232.1 587.1,232.2 583,238.5 580.5,231.4 573.3,229.4 579.2,224.9 578.9,217.4 585,221.7 
		592,219.1 589.9,226.2 	"/>
	<polygon class="st1" points="717.9,170 715.5,168.8 713.2,170 713.6,167.5 711.7,165.7 714.4,165.3 715.6,163 716.8,165.3 
		719.4,165.7 717.5,167.5 	"/>
	<polygon class="st1" points="723.8,68.8 716.2,65.9 709.6,70.6 710,62.5 703.5,57.6 711.3,55.4 713.9,47.8 718.4,54.5 726.5,54.7 
		721.5,61 	"/>
	<polygon class="st1" points="65,247 60.5,242.9 54.5,244.3 57,238.8 53.9,233.5 59.9,234.2 63.9,229.5 65.2,235.5 70.8,237.9 
		65.5,240.9 	"/>
	<polygon class="st1" points="441.5,262.9 439.8,261.2 437.5,261.6 438.6,259.5 437.4,257.4 439.8,257.8 441.4,256.1 441.8,258.4 
		443.9,259.5 441.8,260.5 	"/>
	<polygon class="st1" points="739.7,287.9 732.6,285.5 726.7,289.9 726.7,282.5 720.7,278.2 727.8,275.9 730,268.8 734.3,274.9 
		741.7,274.8 737.3,280.8 	"/>
</g>
<g id="Layer_2">
	<ellipse class="st2" cx="90.6" cy="347" rx="46.4" ry="7"/>
	<ellipse class="st2" cx="548.7" cy="334" rx="30.7" ry="7"/>
	<ellipse class="st2" cx="647.6" cy="354" rx="30.7" ry="7"/>
</g>
<g id="Layer_1">
	<g id="Layer_2_00000121969031019947342350000010200981882704429708_">
		<path class="st3" d="M0,366.2c12,0.3,24,0.6,36,0.8c3-7.7,6-15.3,9-23c25.2,8.4,44.7,9.1,58,8c11.7-0.9,36.7-4.6,36.7-4.6
			c0,0,4.8,7.1,12.3,18.2c22-1.2,44-2.4,66-3.6c9.7-2.7,19.3-5.3,29-8c19,3.8,37.9,7.6,56.9,11.4c7.4-7.5,14.8-14.9,22.1-22.4
			c13.2,5.6,26.3,11.3,39.5,16.9c16.5,0.6,33,1.1,49.4,1.7c26.7,0.9,53.3,1.8,80,2.8c9.4-12.5,18.7-24.9,28.1-37.4
			c14.1,10.8,25.3,12.8,33.3,12.3c9.3-0.6,24.7-5.3,24.7-5.3l0,0c0,0,6.7,10.6,17,27c8-3.7,16-7.3,24-11c7.9,2.5,15.7,4.9,23.6,7.4
			c10.8-1.5,21.6-2.9,32.4-4.4c5.7,4.4,11.3,8.8,17,13.2c7.4-0.2,14.9-0.4,22.3-0.6l14.6,0l60,0.6V612H0V366.2z"/>
	</g>
	<g id="Layer_4">
		<rect x="-31.3" y="368.2" class="st4" width="830" height="254.4"/>
	</g>
	<ellipse class="st2" cx="293.4" cy="550.9" rx="102.6" ry="17"/>
	<ellipse class="st2" cx="627.4" cy="470.6" rx="56.7" ry="13"/>
</g>
<g id="Layer_3">
	<line class="st5" x1="396" y1="550.9" x2="410.9" y2="573.6"/>
	<line class="st5" x1="570.7" y1="467.6" x2="525.4" y2="480.6"/>
	<line class="st5" x1="684.1" y1="467.6" x2="731.7" y2="480.6"/>
	<line class="st5" x1="190.9" y1="550.9" x2="181.8" y2="573.6"/>
</g>
</svg>
