<?xml version="1.0" encoding="UTF-8"?>
<svg xmlns="http://www.w3.org/2000/svg" viewBox="0 0 841.1362 621.7635">
  <defs>
    <style>
      .cls-1 {
        fill: #43435b;
      }

      .cls-2, .cls-3 {
        stroke-width: 3px;
      }

      .cls-2, .cls-3, .cls-4 {
        stroke: #000;
        stroke-miterlimit: 10;
      }

      .cls-2, .cls-5 {
        fill: #dcc;
      }

      .cls-6 {
        fill: #e5e5f9;
      }

      .cls-3 {
        fill: #b2a1a1;
      }

      .cls-4 {
        stroke-width: 4px;
      }
    </style>
  </defs>
  <g id="Layer_4" data-name="Layer 4">
    <rect class="cls-1" x="11.152" width="829.9843" height="411.5906"/>
    <polygon class="cls-6" points="361.7717 297.3462 355.7542 296.1177 351.3308 300.3783 350.6397 294.2757 345.2207 291.3854 350.8111 288.8423 351.8854 282.7954 356.0315 287.3263 362.1144 286.4794 359.0865 291.8227 361.7717 297.3462"/>
    <polygon class="cls-6" points="799.5698 39.9735 793.5017 41.2889 791.1453 47.0334 788.019 41.6688 781.8275 41.2029 785.9635 36.5719 784.4934 30.5394 790.1758 33.0419 795.4587 29.7796 794.8346 35.9572 799.5698 39.9735"/>
    <polygon class="cls-6" points="547.5135 284.2672 539.4285 284.8987 535.3652 291.9169 532.2663 284.4228 524.3359 282.7271 530.5056 277.464 529.6676 269.3978 536.5797 273.6392 543.9922 270.3496 542.0944 278.234 547.5135 284.2672"/>
    <polygon class="cls-6" points="190.9949 286.7142 185.9528 285.0044 181.6857 288.1887 181.7538 282.8649 177.4068 279.7907 182.491 278.2103 184.0714 273.1261 187.1456 277.4731 192.4694 277.405 189.2851 281.6721 190.9949 286.7142"/>
    <polygon class="cls-6" points="434.7717 64.8287 428.6792 63.6372 424.2437 67.9806 423.4942 61.8181 417.9928 58.9419 423.622 56.3248 424.6574 50.2038 428.886 54.7488 435.0273 53.842 432.0115 59.2682 434.7717 64.8287"/>
    <polygon class="cls-6" points="220.4878 91.0885 213.226 88.2838 206.7988 92.676 207.2222 84.9029 201.0589 80.1475 208.5823 78.1481 211.2004 70.817 215.4268 77.3544 223.2082 77.5789 218.2968 83.6186 220.4878 91.0885"/>
    <polygon class="cls-6" points="290.0108 86.5153 287.3275 84.4809 284.1304 85.5381 285.236 82.3574 283.2427 79.6435 286.6093 79.7121 288.5744 76.9777 289.5495 80.2007 292.7573 81.2246 289.9934 83.148 290.0108 86.5153"/>
    <polygon class="cls-6" points="674.7956 124.6959 671.7452 121.9177 667.7272 122.8556 669.4268 119.0959 667.2932 115.5644 671.3941 116.019 674.0934 112.8986 674.9283 116.9392 678.7301 118.5421 675.1453 120.5847 674.7956 124.6959"/>
    <polygon class="cls-6" points="450.4414 187.5132 444.4863 183.9535 438.1778 186.8411 439.7231 180.0775 435.0273 174.9701 441.9375 174.3496 445.3438 168.3054 448.0693 174.6856 454.8703 176.0575 449.6446 180.6212 450.4414 187.5132"/>
    <polygon class="cls-6" points="264.5215 212.6821 257.0432 212.8414 252.9348 219.0922 250.4724 212.0291 243.258 210.0534 249.2145 205.5289 248.8641 198.057 255.0078 202.3238 262.0056 199.6816 259.8462 206.8432 264.5215 212.6821"/>
    <polygon class="cls-6" points="115.0397 137.7992 112.6836 136.5877 110.3082 137.7608 110.7804 135.2392 108.881 133.4353 111.529 133.0883 112.7305 130.8004 113.8947 133.1075 116.5368 133.4973 114.6083 135.2702 115.0397 137.7992"/>
    <polygon class="cls-6" points="719.4791 247.2774 711.8978 244.4369 705.2598 249.0718 705.6186 240.9838 699.1593 236.103 706.9623 233.9448 709.6082 226.2934 714.072 233.0476 722.1666 233.1996 717.1223 239.5321 719.4791 247.2774"/>
    <polygon class="cls-6" points="96.378 246.246 91.8356 242.1463 85.8832 243.5639 88.3787 237.977 85.191 232.754 91.2756 233.4009 95.2579 228.7553 96.523 234.7419 102.1718 237.0938 96.8691 240.1469 96.378 246.246"/>
    <polygon class="cls-6" points="583.7531 62.5022 582.0782 60.8098 579.7345 61.2301 580.8265 59.1142 579.7025 57.0151 582.0523 57.3998 583.7013 55.6822 584.0616 58.0358 586.2047 59.0734 584.0776 60.1433 583.7531 62.5022"/>
    <polygon class="cls-6" points="613.1938 206.5367 606.1347 204.1429 600.1609 208.6009 600.2562 201.1476 594.1703 196.8437 601.2883 194.6311 603.5009 187.5132 607.8047 193.599 615.258 193.5038 610.8 199.4776 613.1938 206.5367"/>
  </g>
  <g id="Layer_2" data-name="Layer 2">
    <path class="cls-3" d="M583.9431,352.629c-5.5712,18.4164-45.4451,18.5363-48.0184,18.5197-17.7715-.1144-46.0012-5.6533-48.0184-18.5197-1.0566-6.7396,5.2147-14.6237,12.1252-17.9421,11.7296-5.6325,18.9,4.9625,39.6851,5.6693,21.9117,.7451,33.157-10.3763,40.8189-3.4016,4.1605,3.7873,4.896,10.7545,3.4077,15.6744Z"/>
  </g>
  <g id="Layer_1" data-name="Layer 1">
    <g id="Layer_2-2" data-name="Layer 2">
      <path class="cls-2" d="M31.3386,365.3675c12.231-3.4237,24.4619-6.8474,36.6929-10.2711,20.7142,6.9923,31.7815,10.7282,31.7815,10.7282,.0043,0,40.7279-.4889,83.5282-1.0027l51.4355-2.8114c17.815-3.2881,31.2751-4.3398,40.7509-4.6463,7.4213-.2401,14.029-.0759,20.4094-4.5354,6.9712-4.8723,7.7485-11.1247,12.4724-11.3386,4.8285-.2187,6.6882,6.1925,14.7402,12.4724,6.0345,4.7064,12.3615,6.8548,17.0079,7.937,29.8906-.5545,59.7812-1.1089,89.6718-1.6634,3.7729,.7111,9.5601,1.4156,16.4194,.5695,29.0419-3.5823,45.0897-30.9871,53.7828-26.1187,3.412,1.9109,.9814,6.156,4.5354,12.4724,8.7006,15.4633,40.6147,20.8513,57.8268,9.0709,8.6375-5.9117,18.1414-19.274,18.1417-19.2756h0c.0009,.0016,14.1349,16.1727,27.2126,23.811,5.0641,2.9578,12.8094,6.2947,44.2205,6.6018,14.4413,.1412,33.7219-.3596,56.5589-2.9462,10.2494,.9821,20.4988,1.9641,30.7482,2.9462,14.7337-.7999,29.4673-1.5998,44.201-2.3996,13.2873,.1332,26.5746,.2664,39.8619,.3996v245.847H31.3386v-245.847Z"/>
    </g>
    <g id="Layer_4-2" data-name="Layer 4">
      <rect class="cls-5" y="367.3675" width="830.043" height="254.3959"/>
    </g>
    <ellipse class="cls-3" cx="243.258" cy="576.2933" rx="162.6633" ry="10.2992"/>
    <ellipse class="cls-3" cx="678.7301" cy="515.9026" rx="49.0079" ry="10.2992"/>
    <line class="cls-2" x1="425.0246" y1="604.5902" x2="405.0184" y2="573.976"/>
  </g>
  <g id="Layer_3" data-name="Layer 3">
    <line class="cls-4" x1="629.5717" y1="516.942" x2="600.9443" y2="526.2018"/>
    <line class="cls-4" x1="85.191" y1="576.2933" x2="56.1852" y2="602.273"/>
    <line class="cls-4" x1="726.8462" y1="515.9026" x2="759.3214" y2="527.2412"/>
  </g>
</svg>