<?xml version="1.0" encoding="UTF-8"?>
<svg xmlns="http://www.w3.org/2000/svg" viewBox="0 0 104.8572 90.5735">
  <defs>
    <style>
      .cls-1 {
        fill: #dbd6ba;
      }

      .cls-1, .cls-2 {
        stroke: #231f20;
        stroke-miterlimit: 10;
      }

      .cls-2 {
        fill: #aaa58a;
      }
    </style>
  </defs>
  <g id="Layer_2" data-name="Layer 2">
    <ellipse class="cls-2" cx="51.7555" cy="5.9245" rx="4.5354" ry="12.4524" transform="translate(32.7527 54.4283) rotate(-75.136)"/>
  </g>
  <g id="Layer_7" data-name="Layer 7">
    <path class="cls-1" d="M5.3661,32.3987c5.0172-6.6,10.0345-13.2,15.0518-19.7999,6.6142-3.9685,13.2283-7.937,19.8425-11.9055,1.0488,1.5541,3.8783,5.2896,9.0709,7.3701,7.0126,2.8097,13.2692,.5712,14.7402,0,4.012,3.5327,8.3546,7.1438,13.0394,10.7717,5.8664,4.5428,11.5834,8.5807,17.0438,12.1652,3.3896,5.5827,6.7792,11.1655,10.1688,16.7482-3.1661,13.3342-9.571,21.264-13.0394,24.9449-18.6356,19.7777-47.3259,17.5358-53.3871,17.0621-4.8382-.3781-8.7515-1.1669-11.2429-1.7551-2.1723-2.3902-5.1137-6.1443-7.3701-11.3386-1.6542-3.8081-1.7139-5.5672-2.8346-7.937-1.7398-3.6787-5.7389-8.2001-15.874-11.3386,1.5969-8.3291,3.1938-16.6583,4.7908-24.9875Z"/>
    <circle class="cls-2" cx="23.1107" cy="39.6696" r="4.3937"/>
    <ellipse class="cls-2" cx="76.2603" cy="34.3546" rx="9.9213" ry="5.315"/>
    <ellipse class="cls-2" cx="54.1467" cy="79.4606" rx="9.9179" ry="8.4682"/>
  </g>
</svg>