<?xml version="1.0" encoding="UTF-8"?>
<svg xmlns="http://www.w3.org/2000/svg" viewBox="0 0 78.0812 85.9112">
  <defs>
    <style>
      .cls-1 {
        fill: #dbd6ba;
      }

      .cls-1, .cls-2 {
        stroke: #231f20;
        stroke-miterlimit: 10;
      }

      .cls-2 {
        fill: #aaa58a;
      }
    </style>
  </defs>
  <g id="Layer_2" data-name="Layer 2">
    <path class="cls-2" d="M56.7938,48.4467c-4.4217,7.3534,3.7615,17.9306,5.2719,17.5118,1.1031-.3059-1.6733-6.3883,1.4681-12.8397,3.0529-6.2695,9.2014-7.7676,8.698-9.0657-.6368-1.642-11.5626-2.0513-15.438,4.3937Z"/>
    <path class="cls-2" d="M46.9027,3.9805c.4562,3.9078-11.0382,8.4442-18.1139,10.3553-6.4147,1.7327-18.8091,3.9038-20.8644-.1494-.6305-1.2434-.2922-3.0809,.6104-4.0837,1.2679-1.4087,3.3015-.7843,7.3769-1.0155,2.6284-.1491,4.4118-.558,7.748-1.3228,2.8521-.6539,5.929-1.3593,9.4488-3.0236,5.1134-2.4178,6.0508-4.4429,8.8819-4.1575,2.0945,.2112,4.7065,1.6348,4.9122,3.3972Z"/>
    <path class="cls-2" d="M37.4992,83.6281c-1.4113,.7481-5.3658-10.5491-18.1859-17.2809-5.5279-2.9028-9.823-3.4438-9.6817-4.5099,.1997-1.5066,9.1652-3.3536,16.2959,.1635,10.7716,5.3129,13.1494,20.7911,11.5717,21.6274Z"/>
  </g>
  <g id="Layer_6" data-name="Layer 6">
    <path class="cls-1" d="M1.4005,44.0532C-1.1259,19.6038,2.0564,12.0548,6.085,10.4101c3.8368-1.5665,7.3768,2.6573,14.473,2.7151,8.7772,.0715,16.1393-6.2862,21.4325-12.5419,3.2722,1.1163,7.8418,2.7475,13.2284,4.9134,11.4733,4.6132,17.2587,6.9855,19.6535,10.2047,6.6094,8.885-.7122,24.4755-2.6406,28.3516-.6479-.2112-6.6371-2.0615-10.9657,1.5067-2.1033,1.7338-2.8437,3.9468-3.0236,4.5354-1.761,5.7612,3.2264,9.4942,3.7795,14.7402,.9871,9.3643-12.2991,22.1856-21.1653,20.4094-8.956-1.7941-7.4724-17.2951-20.0315-21.9213-6.4921-2.3914-10.7909,.3132-15.1181-3.4016-4.3881-3.767-4.7208-10.6287-4.3065-15.8688Z"/>
    <ellipse class="cls-2" cx="13.4551" cy="39.8904" rx="2.4567" ry="7.5591"/>
    <ellipse class="cls-2" cx="50.4944" cy="27.229" rx="8.8819" ry="3.2126"/>
    <circle class="cls-2" cx="42.9722" cy="62.4155" r="3.9316"/>
  </g>
</svg>