<?xml version="1.0" encoding="UTF-8"?>
<svg xmlns="http://www.w3.org/2000/svg" viewBox="0 0 81.3738 96.4503">
  <defs>
    <style>
      .cls-1 {
        fill: #dbd6ba;
      }

      .cls-1, .cls-2 {
        stroke: #231f20;
        stroke-miterlimit: 10;
      }

      .cls-2 {
        fill: #aaa58a;
      }
    </style>
  </defs>
  <g id="Layer_2" data-name="Layer 2">
    <path class="cls-2" d="M37.6213,76.0842c4.3077,7.3584-3.4919,20.0704-7.7817,19.7229-3.0568-.2476-2.1545-6.9496-8.2761-12.5555-7.3828-6.7609-17.2267-4.8256-17.391-7.1674-.1532-2.1844,8.3088-5.3263,16.7244-5.3858,5.0929-.036,13.5155-.0956,16.7244,5.3858Z"/>
    <path class="cls-2" d="M71.458,45.47c2.8785,17.1222,10.6038,27.3643,9.2603,28.1528-.9184,.539-5.2108-5.2454-13.7958-16.8142-7.142-9.6244-8.2625-11.6872-8.5039-14.6933-.7331-9.1261,7.3278-18.3219,10.4882-17.3382,2.5718,.8005,.3961,7.874,2.5512,20.6929Z"/>
  </g>
  <g id="Layer_5" data-name="Layer 5">
    <path class="cls-1" d="M29.8396,95.8071c-.0465-8.8911-4.7156-16.736-11.9563-20.0064-6.1359-2.7713-12.0172-1.3086-13.9819-.7245-1.3513-4.4948-2.4358-9.4974-2.9929-14.9644C-1.8666,32.8796,10.1647,11.0142,16.8705,.7885c4.5896,4.5946,9.1791,9.1893,13.7687,13.7839,28.0339-.3577,36.2924,4.9291,38.2677,10.2047,1.951,5.2107-2.5793,9.4706-3.1181,18.1417-.774,12.4574,7.3619,23.2136,14.9296,30.7039-2.3278,3.6495-4.6555,7.2991-6.9833,10.9486-14.6318,3.7452-29.2637,7.4905-43.8955,11.2357Z"/>
    <ellipse class="cls-2" cx="46.9384" cy="62.7613" rx="3.2598" ry="16.7244"/>
    <ellipse class="cls-2" cx="16.5554" cy="37.9547" rx="4.3415" ry="10.343"/>
  </g>
</svg>