<?xml version="1.0" encoding="utf-8"?>
<!-- Generator: Adobe Illustrator 26.5.0, SVG Export Plug-In . SVG Version: 6.00 Build 0)  -->
<svg version="1.1" id="running2" xmlns="http://www.w3.org/2000/svg" xmlns:xlink="http://www.w3.org/1999/xlink" x="0px" y="0px"
	 viewBox="0 0 237.6 378" style="enable-background:new 0 0 237.6 378;" xml:space="preserve">
<style type="text/css">
	.st0{fill:#FFFFFF;stroke:#000000;stroke-width:5;stroke-miterlimit:10;}
	.st1{fill:none;stroke:#000000;stroke-width:5;stroke-miterlimit:10;}
	.st2{fill:none;stroke:#000000;stroke-width:16;stroke-linecap:round;stroke-miterlimit:10;}
	.st3{fill:#FFFFFF;}
</style>
<path d="M77.1,259.3l7.9,0.5l7.9-44.6l5.1,45.5l34.2,2.4l10-55.9l6.5,57.1l51.9,3.6l9.1-131.4c2.4-34.1-23.4-63.7-57.5-66
	c-34.1-2.4-63.7,23.4-66,57.5L77.1,259.3z"/>
<circle class="st0" cx="90" cy="94.9" r="73"/>
<g>
	<line class="st1" x1="41.9" y1="115.3" x2="60.2" y2="86.3"/>
	<line class="st1" x1="61.9" y1="112.3" x2="41.9" y2="89.6"/>
</g>
<g>
	<line class="st1" x1="41" y1="147" x2="116.8" y2="135.8"/>
	<line class="st1" x1="105.3" y1="147.5" x2="101.9" y2="128.1"/>
	<line class="st1" x1="88.6" y1="150" x2="85.3" y2="131.7"/>
	<line class="st1" x1="72.8" y1="151.8" x2="70.6" y2="133.4"/>
	<line class="st1" x1="59.8" y1="153.2" x2="57.2" y2="135.9"/>
</g>
<g>
	<circle class="st0" cx="99.5" cy="92.3" r="14.2"/>
	<circle cx="99.5" cy="87.8" r="6.2"/>
</g>
<line class="st2" x1="19.8" y1="177.7" x2="92.4" y2="186.9"/>
<line class="st2" x1="125.8" y1="344.3" x2="109.9" y2="212.6"/>
<line class="st2" x1="220.6" y1="350.6" x2="163.4" y2="235.9"/>
<g>
	<path class="st3" d="M161.7,233c-4.4-0.6-7.4-4.7-6.7-9.1l17.9-121.1c0.6-4.4,4.7-7.4,9.1-6.7c4.4,0.6,7.4,4.7,6.7,9.1l-17.9,121.1
		c-0.6,4-4,6.8-7.9,6.8C162.5,233.1,162.1,233.1,161.7,233z"/>
</g>
</svg>
