<?xml version="1.0" encoding="utf-8"?>
<!-- Generator: Adobe Illustrator 26.5.0, SVG Export Plug-In . SVG Version: 6.00 Build 0)  -->
<svg version="1.1" id="Layer_1" xmlns="http://www.w3.org/2000/svg" xmlns:xlink="http://www.w3.org/1999/xlink" x="0px" y="0px"
	 viewBox="0 0 612 792" style="enable-background:new 0 0 612 792;" xml:space="preserve">
<style type="text/css">
	.st0{fill:#FFFFFF;stroke:#000000;stroke-miterlimit:10;}
</style>
<path class="st0" d="M372.07,303.85c7.48-0.91,14.97-1.81,22.45-2.72l8.16,7.48l6.12,16.33l12.93,10.2v11.56l-26.53,14.29
	l-19.73-3.4l-14.29-12.24l-5.44-18.03c0.91-4.65,1.81-9.3,2.72-13.95C363,310.2,367.54,307.02,372.07,303.85z"/>
<path class="st0" d="M354.39,342.63c-6.58,2.72-13.15,5.44-19.73,8.16L306,354.87l-63.18,2.72l-14.97,16.33L248.95,396h44.9h44.22
	l27.89-19.36c1.13-4.33,2.27-8.67,3.4-13c-2.95-1.56-5.89-3.13-8.84-4.69C358.47,353.51,356.43,348.07,354.39,342.63z"/>
<path class="st0" d="M205.41,343.31l-50.34-19.73l-51.7-16.33l4.76,39.46l24.49,14.29l42.86,14.29c14.29-1.13,28.57-2.27,42.86-3.4
	c5.67-4.54,11.34-9.07,17.01-13.61C225.36,353.28,215.39,348.29,205.41,343.31z"/>
<polygon class="st0" points="361.19,301.13 320.37,287.52 347.59,319.5 355.75,307.25 "/>
<path class="st0" d="M388.74,293.65c-9.18-7.26-18.37-14.51-27.55-21.77l13.78,25.17C379.56,295.91,384.15,294.78,388.74,293.65z"/>
<polygon class="st0" points="346.22,399.09 364.59,429.7 385.68,454.87 346.22,435.82 334.66,404.53 "/>
<polygon class="st0" points="360.17,393.65 369.35,386.84 388.74,410.65 412.21,426.98 378.2,418.82 "/>
<polygon class="st0" points="240.52,396 248.88,430.71 261.46,461.04 229.52,431.05 227.86,397.73 "/>
<polygon class="st0" points="265.12,400.63 281.23,427.47 299.72,449.54 265.12,432.84 254.98,405.4 "/>
<ellipse class="st0" cx="392.48" cy="330.38" rx="6.8" ry="10.88"/>
<ellipse class="st0" cx="395.88" cy="330.04" rx="3.4" ry="7.14"/>
<path class="st0" d="M421.73,335.14h-6.8c2.27,1.64,4.54,3.28,6.8,4.92C421.73,338.42,421.73,336.78,421.73,335.14z"/>
</svg>
