<?xml version="1.0" encoding="utf-8"?>
<!-- Generator: Adobe Illustrator 26.5.0, SVG Export Plug-In . SVG Version: 6.00 Build 0)  -->
<svg version="1.1" xmlns="http://www.w3.org/2000/svg" xmlns:xlink="http://www.w3.org/1999/xlink" x="0px" y="0px"
	 viewBox="0 0 792 612" style="enable-background:new 0 0 792 612;" xml:space="preserve">
<g id="Layer_1" style="display:none;">
	
		<rect y="366.153" style="display:inline;fill:#FFFFFF;stroke:#000000;stroke-width:3;stroke-miterlimit:10;" width="792" height="245.847"/>
	<path style="display:inline;fill:#FFFFFF;stroke:#000000;stroke-width:3;stroke-miterlimit:10;" d="M278.5519,365.3992
		l12.6557-22.8804l12.6557,22.8804C295.4262,365.3993,286.9891,365.3992,278.5519,365.3992z"/>
	<path style="display:inline;fill:#FFFFFF;stroke:#000000;stroke-width:3;stroke-miterlimit:10;" d="M306.8511,365.3992
		l14.6496-29.6833l14.6496,29.6833C326.3839,365.3992,316.6175,365.3992,306.8511,365.3992z"/>
	<path style="display:inline;fill:#FFFFFF;stroke:#000000;stroke-width:3;stroke-miterlimit:10;" d="M658.7056,365.5512
		l14.6495-29.6833l14.6496,29.6833C678.2384,365.5512,668.472,365.5512,658.7056,365.5512z"/>
	<path style="display:inline;fill:#FFFFFF;stroke:#000000;stroke-width:3;stroke-miterlimit:10;" d="M688.0047,365.5513
		l14.6495-18.9774l14.6496,18.9774C707.5375,365.5513,697.7711,365.5513,688.0047,365.5513z"/>
	<path style="display:inline;fill:#FFFFFF;stroke:#000000;stroke-width:3;stroke-miterlimit:10;" d="M717.3038,365.551
		l7.3248-37.5567l7.3248,37.5567C727.0701,365.5511,722.187,365.551,717.3038,365.551z"/>
	<path style="display:inline;fill:#FFFFFF;stroke:#000000;stroke-width:3;stroke-miterlimit:10;" d="M531.4133,365.5511
		l7.3248-14.8566l7.3248,14.8566C541.1797,365.5511,536.2965,365.5511,531.4133,365.5511z"/>
	<path style="display:inline;fill:#FFFFFF;stroke:#000000;stroke-width:3;stroke-miterlimit:10;" d="M82.7493,365.6732
		l14.6496-18.9774l14.6496,18.9774C102.2821,365.6732,92.5157,365.6732,82.7493,365.6732z"/>
	<path style="display:inline;fill:#FFFFFF;stroke:#000000;stroke-width:3;stroke-miterlimit:10;" d="M223.3552,529.541h-78.1421
		c-2.8552,0-5.1913-2.3361-5.1913-5.1912l0,0c0-2.8552,2.3361-5.1913,5.1913-5.1913h78.1421c2.8552,0,5.1913,2.3361,5.1913,5.1913
		l0,0C228.5464,527.2049,226.2104,529.541,223.3552,529.541z"/>
	
		<ellipse transform="matrix(0.958 -0.2869 0.2869 0.958 -137.7979 87.154)" style="display:inline;fill:#FFFFFF;stroke:#000000;stroke-width:3;stroke-miterlimit:10;" cx="228.5464" cy="513.8633" rx="12.5683" ry="8.0885"/>
	
		<ellipse transform="matrix(0.958 -0.2869 0.2869 0.958 -147.0931 61.7768)" style="display:inline;fill:#FFFFFF;stroke:#000000;stroke-width:3;stroke-miterlimit:10;" cx="137.2896" cy="532.8981" rx="12.5683" ry="8.0885"/>
	
		<ellipse transform="matrix(0.3941 -0.9191 0.9191 0.3941 -387.4339 440.0251)" style="display:inline;fill:#FFFFFF;stroke:#000000;stroke-width:3;stroke-miterlimit:10;" cx="140.0219" cy="513.8633" rx="8.0885" ry="12.5683"/>
	
		<ellipse transform="matrix(0.3941 -0.9191 0.9191 0.3941 -351.293 532.9169)" style="display:inline;fill:#FFFFFF;stroke:#000000;stroke-width:3;stroke-miterlimit:10;" cx="228.5464" cy="532.8981" rx="8.0885" ry="12.5683"/>
</g>
<g id="Layer_2">
	<polygon style="fill:#FFFFFF;stroke:#000000;stroke-width:3;stroke-miterlimit:10;" points="0,366.153 82.7493,365.6732 
		97.3989,346.6957 112.0485,365.6732 278.5519,365.3992 291.2077,342.5189 303.8634,365.3992 321.5007,333.3661 336.1503,365.3992 
		529.0929,365.5513 538.7382,346.7727 546.0629,365.5511 658.7056,365.5512 673.3552,333.3661 688.0048,365.5512 702.6542,346.5739 
		717.3038,365.5513 724.6285,320.7978 731.9533,365.551 792,366.153 792,612 0,612 	"/>
</g>
<g id="Layer_3">
	<path style="fill:#FFFFFF;stroke:#000000;stroke-width:3;stroke-miterlimit:10;" d="M134.5711,507.8447
		c0.0772-0.2791-5.9846,0.5911-8.6928-0.8789c-1.36-0.7382-1.8948-2.0777-0.7155-3.1868c2.1402-2.0126,9.7526-3.1034,13.2501-2.0238
		c2.7894,0.861,1.688,2.7093,4.6298,3.1583c2.0782,0.3172,4.3833-0.3372,6.8188-0.9155c8.2161-1.9508,8.2572-0.741,27.4512-3.8962
		c1.5066-0.2477,4.2503-0.7064,7.6839-1.6488c3.767-1.0339,6.843-1.8782,8.5889-3.3407c2.3928-2.0044-0.3083-2.9957,1.7988-4.674
		c2.7585-2.1971,11.5459-3.8098,14.8645-2.1685c1.209,0.598,2.0471,1.8033,1.0224,3.0378c-1.8229,2.196-8.3609,3.0621-8.338,3.8934
		c0.0177,0.6448,3.9482,0.0362,7.3582,1.1537c0.511,0.1674,4.0195,1.3173,3.0676,2.8725c-0.8348,1.3638-4.715,2.4108-7.346,2.8134
		c-5.3419,0.8175-7.2125-0.7643-12.228-1.1291c-6.9569-0.5059-8.4842,2.1647-23.8543,4.4046
		c-12.9341,1.8849-19.4012,2.8274-22.3872,2.8471c-0.9344,0.0062-4.0601,0.0006-5.542,0.9242
		c-1.2088,0.7533-0.1685,1.405-0.9045,2.5678c-1.1713,1.8508-6.2374,4.0416-11.0295,4.2205
		c-0.7717,0.0288-5.2184,0.1428-6.6073-1.7175c-0.9535-1.2771-0.1394-3.0475,1.9454-4.2117
		C128.6831,508.1164,134.494,508.1235,134.5711,507.8447z"/>
	<path style="fill:#FFFFFF;stroke:#000000;stroke-width:3;stroke-miterlimit:10;" d="M175.5432,498.0724
		c0.1516-0.2467-5.9139-1.0911-8.1085-3.2543c-1.1021-1.0863-1.2446-2.5216,0.1959-3.2602
		c2.6143-1.3405,10.2306-0.2782,13.2919,1.7286c2.4414,1.6005,0.8708,3.071,3.5728,4.318c1.9088,0.8809,4.305,0.8911,6.8054,1.0106
		c8.4349,0.4033,8.139,1.5771,27.4554,3.8663c1.5162,0.1797,4.2796,0.4995,7.8398,0.5459c3.906,0.0508,7.0955,0.0923,9.1784-0.8288
		c2.8547-1.2625,0.5342-2.9638,3.0239-3.9922c3.2594-1.3463,12.1496-0.4599,14.8831,2.0371
		c0.9958,0.9097,1.467,2.3002,0.1403,3.2022c-2.3602,1.6046-8.8821,0.6244-9.0905,1.4294c-0.1617,0.6245,3.7834,1.1293,6.75,3.1483
		c0.4445,0.3026,3.4968,2.3799,2.1511,3.6103c-1.1801,1.0789-5.1985,1.0092-7.838,0.6667
		c-5.3592-0.6954-6.7179-2.7337-11.4358-4.4745c-6.544-2.4146-8.7518-0.2721-24.1404-2.3807
		c-12.9497-1.7745-19.4246-2.6617-22.299-3.4705c-0.8995-0.2531-3.9012-1.1249-5.5809-0.6483
		c-1.3702,0.3887-0.5514,1.3032-1.5809,2.2165c-1.6385,1.4536-7.1133,2.1542-11.7672,0.9975
		c-0.7495-0.1863-5.0535-1.3094-5.8722-3.4817c-0.5621-1.4914,0.7109-2.9668,3.0367-3.5074
		C169.8106,496.7013,175.3918,498.319,175.5432,498.0724z"/>
	<g>
		<path style="fill:#FFFFFF;stroke:#000000;stroke-width:3;stroke-miterlimit:10;" d="M167.2532,505.1596
			c-3.7959-5.9894-6.3198-16.7046-2.0046-24.3925c5.2866-9.4188,20.1917-13.1423,30.9724-7.8105
			c12.349,6.1075,16.9873,22.9596,12.6583,28.0098c-3.1299,3.6513-11.7828,2.1082-12.288,5.0322
			c-0.1003,0.5805,0.2005,0.8743,1.134,2.6055c2.1917,4.0648,3.2876,6.0972,3.0743,7.4445
			c-0.4254,2.687-21.2629,8.5741-22.8926,7.8104c-2.4257-1.1366-2.4317-4.4036-4.0399-8.6184
			C171.896,510.0752,169.5243,508.7431,167.2532,505.1596z"/>
		<path style="stroke:#000000;stroke-width:3;stroke-miterlimit:10;" d="M179.5228,499.6198
			c-2.1792-1.0054-3.2095-5.4064-1.3466-7.5411c2.3324-2.6728,8.274-0.731,8.8877,1.616
			C187.7353,496.2625,182.463,500.9763,179.5228,499.6198z"/>
		<polyline style="fill:#FFFFFF;stroke:#000000;stroke-width:3;stroke-miterlimit:10;" points="190.0265,510.6621 186.7251,514.702 
			175.1489,519.2991 177.9068,523.8591 		"/>
		
			<line style="fill:#FFFFFF;stroke:#000000;stroke-width:3;stroke-miterlimit:10;" x1="180.3307" y1="512.3146" x2="182.5877" y2="519.2805"/>
		
			<line style="fill:#FFFFFF;stroke:#000000;stroke-width:3;stroke-miterlimit:10;" x1="186.7251" y1="509.5848" x2="190.0265" y2="515.7976"/>
	</g>
	<path style="fill:#FFFFFF;stroke:#000000;stroke-width:3;stroke-miterlimit:10;" d="M165.3008,527.0366
		c0.0772-0.2791-5.9846,0.5911-8.6928-0.8789c-1.36-0.7382-1.8948-2.0778-0.7155-3.1868c2.1402-2.0126,9.7526-3.1034,13.2501-2.0238
		c2.7894,0.861,1.688,2.7093,4.6298,3.1583c2.0782,0.3172,4.3833-0.3372,6.8188-0.9155c8.2161-1.9507,8.2572-0.741,27.4512-3.8962
		c1.5066-0.2477,4.2503-0.7064,7.6839-1.6488c3.767-1.0339,6.843-1.8782,8.5889-3.3407c2.3928-2.0044-0.3083-2.9957,1.7988-4.674
		c2.7585-2.1971,11.5459-3.8098,14.8645-2.1685c1.209,0.598,2.0471,1.8034,1.0224,3.0378c-1.8229,2.196-8.3609,3.0621-8.338,3.8934
		c0.0177,0.6448,3.9482,0.0362,7.3582,1.1537c0.511,0.1675,4.0195,1.3173,3.0676,2.8726c-0.8348,1.3638-4.715,2.4108-7.346,2.8134
		c-5.3419,0.8175-7.2125-0.7643-12.228-1.129c-6.9569-0.5059-8.4842,2.1647-23.8543,4.4046
		c-12.9341,1.8849-19.4012,2.8273-22.3872,2.847c-0.9344,0.0062-4.0601,0.0007-5.542,0.9242
		c-1.2088,0.7533-0.1685,1.405-0.9045,2.5678c-1.1713,1.8508-6.2374,4.0416-11.0295,4.2205
		c-0.7717,0.0288-5.2184,0.1428-6.6073-1.7174c-0.9535-1.2772-0.1394-3.0475,1.9454-4.2117
		C159.4128,527.3083,165.2236,527.3154,165.3008,527.0366z"/>
	<path style="fill:#FFFFFF;stroke:#000000;stroke-width:3;stroke-miterlimit:10;" d="M718.8781,406.0991
		c0.5695-0.3571,28.6269,32.5182,20.5375,42.6374c-6.7697,8.4683-35.0822-3.7186-34.9476-4.2967
		c0.1221-0.5241,23.5265,8.8999,29.7541,1.0033C741.881,435.7314,718.3459,406.4328,718.8781,406.0991z"/>
	<path style="fill:#FFFFFF;stroke:#000000;stroke-width:3;stroke-miterlimit:10;" d="M686.174,406.0991
		c-0.5695-0.3571-28.6269,32.5182-20.5375,42.6374c6.7697,8.4683,35.0822-3.7186,34.9476-4.2967
		c-0.122-0.5241-23.5265,8.8999-29.7541,1.0033C663.171,435.7314,686.7061,406.4328,686.174,406.0991z"/>
	<path style="fill:#FFFFFF;stroke:#000000;stroke-width:3;stroke-miterlimit:10;" d="M717.7504,421.0817
		c0.4626-0.2901,23.2538,26.4148,16.6827,34.6346c-5.499,6.8788-28.4975-3.0206-28.3882-3.4902
		c0.0992-0.4257,19.1108,7.2294,24.1695,0.8149C736.4359,445.1523,717.3182,421.3528,717.7504,421.0817z"/>
	<path style="fill:#FFFFFF;stroke:#000000;stroke-width:3;stroke-miterlimit:10;" d="M691.1846,421.0817
		c-0.4626-0.2901-23.2538,26.4148-16.6827,34.6346c5.499,6.8788,28.4975-3.0206,28.3882-3.4902
		c-0.0992-0.4257-19.1108,7.2294-24.1695,0.8149C672.4991,445.1523,691.6169,421.3528,691.1846,421.0817z"/>
	<path style="fill:#FFFFFF;stroke:#000000;stroke-width:3;stroke-miterlimit:10;" d="M716.3471,437.3496
		c0.3588-0.225,18.0362,20.4879,12.9395,26.8634c-4.2651,5.3354-22.1033-2.3429-22.0185-2.7071
		c0.0769-0.3302,14.8228,5.6073,18.7464,0.6321C730.84,456.0193,716.0118,437.5598,716.3471,437.3496z"/>
	<path style="fill:#FFFFFF;stroke:#000000;stroke-width:3;stroke-miterlimit:10;" d="M695.7421,437.3496
		c-0.3588-0.225-18.0362,20.4879-12.9395,26.8634c4.2651,5.3354,22.1033-2.3429,22.0185-2.7071
		c-0.0769-0.3302-14.8228,5.6073-18.7464,0.6321C681.2493,456.0193,696.0774,437.5598,695.7421,437.3496z"/>
	<path style="fill:#FFFFFF;stroke:#000000;stroke-width:3;stroke-miterlimit:10;" d="M702.2935,444.6964
		c2.6868-0.3067,5.652,1.1952,5.6397,2.4814c-0.011,1.155-2.421,1.9399-2.707,2.0303c-3.1389,0.9918-7.0951-0.3753-7.2188-1.8047
		C697.9083,446.2593,700.2524,444.9294,702.2935,444.6964z"/>
	<path style="fill:#FFFFFF;stroke:#000000;stroke-width:3;stroke-miterlimit:10;" d="M703.076,454.3871
		c2.6868-0.3067,5.652,1.1952,5.6397,2.4815c-0.011,1.155-2.421,1.9399-2.707,2.0303c-3.1389,0.9918-7.0951-0.3753-7.2189-1.8047
		C698.6908,455.9499,701.0349,454.6201,703.076,454.3871z"/>
	<path style="fill:#FFFFFF;stroke:#000000;stroke-width:3;stroke-miterlimit:10;" d="M704.4062,463.6882
		c2.6867-0.3067,5.652,1.1952,5.6396,2.4815c-0.011,1.155-2.4209,1.9399-2.707,2.0303c-3.1389,0.9918-7.0951-0.3753-7.2188-1.8047
		C700.0209,465.2511,702.3651,463.9212,704.4062,463.6882z"/>
</g>
</svg>
