<?xml version="1.0" encoding="utf-8"?>
<!-- Generator: Adobe Illustrator 26.5.0, SVG Export Plug-In . SVG Version: 6.00 Build 0)  -->
<svg version="1.1" xmlns="http://www.w3.org/2000/svg" xmlns:xlink="http://www.w3.org/1999/xlink" x="0px" y="0px"
	 viewBox="0 0 792 612" style="enable-background:new 0 0 792 612;" xml:space="preserve">
<g id="Layer_2">
	<polygon style="fill:#FFFFFF;stroke:#000000;stroke-width:3;stroke-miterlimit:10;" points="0,366.153 70.2687,365.7455 
		98.194,321.4477 123.0642,365.655 278.5519,365.3992 291.2077,342.5189 303.8634,365.3992 323.6569,357.3621 336.1503,365.3992 
		529.0929,365.5513 534.7903,328.0726 546.0629,365.5511 658.7056,365.5512 673.313,366.153 688.0048,365.5512 702.6542,346.5739 
		717.3038,365.5513 731.9533,365.551 731.9533,365.551 792,366.153 792,612 0,612 	"/>
</g>
<g id="Layer_4">
	<rect x="-21.4575" y="366.153" style="fill:#FFFFFF;" width="830.043" height="254.3959"/>
</g>
<g id="Layer_3">
	<path style="fill:#FFFFFF;stroke:#000000;stroke-width:3;stroke-miterlimit:10;" d="M101.1678,583.1842
		c0.0772-0.2791-5.9846,0.5911-8.6928-0.8789c-1.36-0.7382-1.8948-2.0778-0.7155-3.1868c2.1402-2.0126,9.7526-3.1034,13.2501-2.0238
		c2.7894,0.861,1.688,2.7093,4.6298,3.1583c2.0782,0.3172,4.3833-0.3372,6.8188-0.9155c8.2161-1.9507,8.2572-0.741,27.4512-3.8962
		c1.5066-0.2477,4.2503-0.7064,7.6839-1.6488c3.767-1.0339,6.843-1.8782,8.5889-3.3407c2.3928-2.0044-0.3083-2.9957,1.7988-4.674
		c2.7585-2.197,11.5459-3.8098,14.8645-2.1685c1.209,0.598,2.0471,1.8033,1.0224,3.0378c-1.8229,2.196-8.3609,3.0621-8.338,3.8934
		c0.0178,0.6448,3.9482,0.0362,7.3582,1.1537c0.511,0.1675,4.0195,1.3173,3.0676,2.8726c-0.8348,1.3638-4.715,2.4108-7.346,2.8134
		c-5.3419,0.8175-7.2125-0.7643-12.228-1.129c-6.9569-0.5059-8.4842,2.1647-23.8543,4.4046
		c-12.9341,1.8849-19.4012,2.8273-22.3872,2.847c-0.9344,0.0062-4.0601,0.0007-5.542,0.9242
		c-1.2088,0.7533-0.1686,1.405-0.9045,2.5678c-1.1713,1.8508-6.2373,4.0416-11.0295,4.2205
		c-0.7717,0.0288-5.2184,0.1428-6.6073-1.7174c-0.9535-1.2771-0.1394-3.0475,1.9454-4.2117
		C95.2798,583.4559,101.0906,583.4631,101.1678,583.1842z"/>
	<path style="fill:#FFFFFF;stroke:#000000;stroke-width:3;stroke-miterlimit:10;" d="M142.1398,573.412
		c0.1516-0.2467-5.9139-1.0911-8.1085-3.2543c-1.1021-1.0863-1.2446-2.5215,0.196-3.2602
		c2.6142-1.3405,10.2306-0.2782,13.2919,1.7286c2.4414,1.6005,0.8708,3.071,3.5728,4.318c1.9088,0.8809,4.305,0.8911,6.8054,1.0106
		c8.4348,0.4033,8.139,1.5771,27.4554,3.8663c1.5162,0.1797,4.2796,0.4995,7.8398,0.5458c3.906,0.0508,7.0954,0.0924,9.1784-0.8288
		c2.8547-1.2626,0.5342-2.9638,3.0239-3.9922c3.2594-1.3463,12.1496-0.4598,14.8831,2.0371
		c0.9958,0.9097,1.467,2.3002,0.1402,3.2021c-2.3602,1.6046-8.882,0.6244-9.0905,1.4295c-0.1617,0.6244,3.7834,1.1292,6.75,3.1483
		c0.4445,0.3026,3.4968,2.3799,2.151,3.6104c-1.1801,1.079-5.1985,1.0092-7.838,0.6667c-5.3592-0.6954-6.7179-2.7338-11.4358-4.4745
		c-6.544-2.4146-8.7518-0.2721-24.1404-2.3807c-12.9497-1.7745-19.4246-2.6616-22.299-3.4705
		c-0.8995-0.2531-3.9012-1.1249-5.5809-0.6484c-1.3702,0.3887-0.5514,1.3032-1.5809,2.2165
		c-1.6385,1.4536-7.1133,2.1542-11.7672,0.9975c-0.7495-0.1863-5.0535-1.3094-5.8722-3.4817
		c-0.5621-1.4914,0.7109-2.9668,3.0367-3.5074C136.4073,572.0408,141.9884,573.6585,142.1398,573.412z"/>
	<g>
		<path style="fill:#FFFFFF;stroke:#000000;stroke-width:3;stroke-miterlimit:10;" d="M133.8498,580.4991
			c-3.7959-5.9894-6.3198-16.7046-2.0046-24.3926c5.2866-9.4188,20.1917-13.1423,30.9724-7.8104
			c12.349,6.1075,16.9873,22.9596,12.6583,28.0098c-3.1299,3.6513-11.7828,2.1082-12.288,5.0322
			c-0.1003,0.5805,0.2005,0.8743,1.134,2.6055c2.1917,4.0648,3.2876,6.0972,3.0743,7.4445
			c-0.4255,2.687-21.2629,8.5741-22.8927,7.8104c-2.4257-1.1366-2.4316-4.4036-4.0399-8.6184
			C138.4926,585.4148,136.1209,584.0827,133.8498,580.4991z"/>
		<path style="stroke:#000000;stroke-width:3;stroke-miterlimit:10;" d="M146.1194,574.9594
			c-2.1792-1.0054-3.2095-5.4064-1.3466-7.5411c2.3324-2.6728,8.274-0.731,8.8877,1.616
			C154.332,571.6021,149.0596,576.3159,146.1194,574.9594z"/>
		<polyline style="fill:#FFFFFF;stroke:#000000;stroke-width:3;stroke-miterlimit:10;" points="156.6231,586.0017 
			153.3218,590.0416 141.7455,594.6387 144.5035,599.1986 		"/>
		
			<line style="fill:#FFFFFF;stroke:#000000;stroke-width:3;stroke-miterlimit:10;" x1="146.9274" y1="587.6542" x2="149.1843" y2="594.6201"/>
		
			<line style="fill:#FFFFFF;stroke:#000000;stroke-width:3;stroke-miterlimit:10;" x1="153.3218" y1="584.9244" x2="156.6231" y2="591.1371"/>
	</g>
	<path style="fill:#FFFFFF;stroke:#000000;stroke-width:3;stroke-miterlimit:10;" d="M131.8975,602.3762
		c0.0773-0.2791-5.9846,0.5911-8.6928-0.879c-1.36-0.7382-1.8948-2.0778-0.7155-3.1868c2.1402-2.0126,9.7526-3.1033,13.2501-2.0238
		c2.7894,0.861,1.688,2.7093,4.6298,3.1583c2.0782,0.3172,4.3833-0.3373,6.8188-0.9156c8.2161-1.9507,8.2572-0.741,27.4512-3.8962
		c1.5066-0.2476,4.2503-0.7064,7.6839-1.6488c3.767-1.0339,6.843-1.8782,8.5889-3.3407c2.3928-2.0043-0.3083-2.9957,1.7988-4.674
		c2.7585-2.197,11.5459-3.8098,14.8645-2.1685c1.209,0.5979,2.0471,1.8033,1.0224,3.0378c-1.8229,2.1959-8.3609,3.0621-8.338,3.8934
		c0.0178,0.6448,3.9482,0.0362,7.3582,1.1537c0.511,0.1674,4.0195,1.3173,3.0676,2.8725c-0.8348,1.3638-4.715,2.4108-7.346,2.8134
		c-5.3419,0.8175-7.2125-0.7643-12.228-1.1291c-6.9569-0.5059-8.4842,2.1647-23.8543,4.4046
		c-12.9341,1.8849-19.4012,2.8274-22.3872,2.8471c-0.9344,0.0062-4.0601,0.0006-5.542,0.9241
		c-1.2088,0.7534-0.1686,1.405-0.9045,2.5679c-1.1713,1.8508-6.2373,4.0416-11.0295,4.2204
		c-0.7717,0.0288-5.2184,0.1428-6.6073-1.7174c-0.9535-1.2771-0.1394-3.0475,1.9454-4.2117
		C126.0095,602.6479,131.8203,602.655,131.8975,602.3762z"/>
	<path style="fill:#FFFFFF;stroke:#000000;stroke-width:3;stroke-miterlimit:10;" d="M603.6222,473.8357
		c0.1516-0.2467-5.9139-1.0911-8.1085-3.2542c-1.1021-1.0863-1.2446-2.5216,0.1959-3.2602
		c2.6143-1.3405,10.2307-0.2782,13.2919,1.7286c2.4415,1.6005,0.8708,3.071,3.5728,4.3179
		c1.9088,0.8809,4.3051,0.8911,6.8054,1.0106c8.4349,0.4033,8.139,1.577,27.4554,3.8663c1.5162,0.1797,4.2795,0.4995,7.8398,0.5459
		c3.906,0.0508,7.0955,0.0923,9.1784-0.8289c2.8546-1.2625,0.5342-2.9638,3.0239-3.9921
		c3.2594-1.3463,12.1495-0.4599,14.8831,2.0371c0.9958,0.9097,1.467,2.3002,0.1403,3.2022
		c-2.3602,1.6046-8.882,0.6244-9.0905,1.4294c-0.1617,0.6244,3.7834,1.1293,6.75,3.1483c0.4445,0.3026,3.4968,2.3799,2.1511,3.6103
		c-1.1802,1.0789-5.1985,1.0092-7.838,0.6667c-5.3592-0.6954-6.7179-2.7337-11.4358-4.4745
		c-6.544-2.4146-8.7518-0.2721-24.1404-2.3807c-12.9497-1.7744-19.4246-2.6617-22.299-3.4705
		c-0.8995-0.2531-3.9012-1.1249-5.5809-0.6484c-1.3702,0.3888-0.5515,1.3032-1.5809,2.2165
		c-1.6385,1.4535-7.1133,2.1541-11.7672,0.9975c-0.7495-0.1863-5.0535-1.3094-5.8723-3.4817
		c-0.5621-1.4914,0.7109-2.9668,3.0367-3.5074C597.8896,472.4646,603.4707,474.0822,603.6222,473.8357z"/>
	<path style="fill:#FFFFFF;stroke:#000000;stroke-width:3;stroke-miterlimit:10;" d="M566.2355,494.39
		c0.0772-0.2791-5.9846,0.5911-8.6929-0.8789c-1.36-0.7382-1.8948-2.0777-0.7155-3.1867c2.1402-2.0126,9.7526-3.1034,13.2501-2.0238
		c2.7894,0.861,1.688,2.7093,4.6298,3.1583c2.0782,0.3172,4.3833-0.3372,6.8188-0.9155c8.2161-1.9507,8.2571-0.741,27.4512-3.8962
		c1.5066-0.2477,4.2503-0.7064,7.6839-1.6488c3.767-1.0339,6.843-1.8782,8.5889-3.3407c2.3928-2.0044-0.3083-2.9957,1.7988-4.674
		c2.7585-2.1971,11.5459-3.8098,14.8645-2.1685c1.209,0.598,2.0472,1.8034,1.0225,3.0378c-1.8229,2.1959-8.3609,3.0621-8.338,3.8934
		c0.0178,0.6448,3.9482,0.0362,7.3582,1.1537c0.511,0.1675,4.0195,1.3173,3.0676,2.8725c-0.8348,1.3638-4.715,2.4108-7.346,2.8134
		c-5.3419,0.8175-7.2125-0.7643-12.228-1.1291c-6.9569-0.5059-8.4842,2.1647-23.8543,4.4046
		c-12.9341,1.8849-19.4012,2.8274-22.3872,2.8471c-0.9344,0.0062-4.0601,0.0006-5.5419,0.9241
		c-1.2087,0.7534-0.1686,1.405-0.9045,2.5679c-1.1713,1.8508-6.2374,4.0416-11.0295,4.2204
		c-0.7717,0.0288-5.2184,0.1428-6.6072-1.7174c-0.9535-1.2771-0.1394-3.0475,1.9454-4.2117
		C560.3474,494.6617,566.1583,494.6689,566.2355,494.39z"/>
</g>
</svg>
