<?xml version="1.0" encoding="utf-8"?>
<!-- Generator: Adobe Illustrator 26.5.0, SVG Export Plug-In . SVG Version: 6.00 Build 0)  -->
<svg version="1.1" id="running2" xmlns="http://www.w3.org/2000/svg" xmlns:xlink="http://www.w3.org/1999/xlink" x="0px" y="0px"
	 viewBox="0 0 237.5995 377.9992" style="enable-background:new 0 0 237.5995 377.9992;" xml:space="preserve">
<path d="M151.4178,127.9703c-2.3658-34.0963-31.9242-59.819-66.0204-57.4532c-34.0963,2.3658-59.819,31.9242-57.4532,66.0205
	L37.06,267.9157l51.9167-3.6023l6.4546-57.0799l9.957,55.9412l34.211-2.3738l5.1435-45.4859l7.9346,44.5785l7.8562-0.5451
	L151.4178,127.9703z"/>
<g>
	
		<ellipse transform="matrix(0.7071 -0.7071 0.7071 0.7071 -18.228 129.8664)" style="fill:#FFFFFF;stroke:#000000;stroke-width:5;stroke-miterlimit:10;" cx="147.6486" cy="86.9364" rx="72.9508" ry="72.9508"/>
	<g>
		
			<line style="fill:none;stroke:#000000;stroke-width:5;stroke-miterlimit:10;" x1="170.5551" y1="66.063" x2="199.754" y2="84.0382"/>
		
			<line style="fill:none;stroke:#000000;stroke-width:5;stroke-miterlimit:10;" x1="188.4314" y1="60.9712" x2="180.4801" y2="90.1461"/>
	</g>
	<g>
		
			<line style="fill:none;stroke:#000000;stroke-width:5;stroke-miterlimit:10;" x1="141.5269" y1="135.4513" x2="214.4953" y2="112.0791"/>
		
			<line style="fill:none;stroke:#000000;stroke-width:5;stroke-miterlimit:10;" x1="151.5785" y1="121.9479" x2="157.0005" y2="140.8659"/>
		
			<line style="fill:none;stroke:#000000;stroke-width:5;stroke-miterlimit:10;" x1="168.057" y1="117.8722" x2="173.1489" y2="135.7484"/>
		
			<line style="fill:none;stroke:#000000;stroke-width:5;stroke-miterlimit:10;" x1="181.9567" y1="112.8941" x2="188.0903" y2="130.4402"/>
		
			<line style="fill:none;stroke:#000000;stroke-width:5;stroke-miterlimit:10;" x1="195.1447" y1="109.288" x2="200.4273" y2="125.9574"/>
	</g>
	<g>
		<circle style="fill:#FFFFFF;stroke:#000000;stroke-width:5;stroke-miterlimit:10;" cx="137.9007" cy="88.7357" r="14.2077"/>
		<circle cx="142.1596" cy="84.0382" r="6.1877"/>
	</g>
</g>
<line style="fill:none;stroke:#000000;stroke-width:16;stroke-linecap:round;stroke-miterlimit:10;" x1="147.8439" y1="182.2958" x2="213.1164" y2="149.0116"/>
<line style="fill:none;stroke:#000000;stroke-width:16;stroke-linecap:round;stroke-miterlimit:10;" x1="134.6667" y1="216.4996" x2="92.9371" y2="342.4085"/>
<line style="fill:none;stroke:#000000;stroke-width:16;stroke-linecap:round;stroke-miterlimit:10;" x1="69.1876" y1="235.9007" x2="12.0307" y2="350.5772"/>
<g>
	<path style="fill:#FFFFFF;stroke:#000000;stroke-width:5;stroke-miterlimit:10;" d="M131.8626,51.3427
		c2.9679,2.5323,3.7119,6.9232,1.5786,10.3277L68.4441,165.4007c-2.3461,3.7442-7.2829,4.8775-11.0271,2.5314
		c-3.7449-2.346-4.8767-7.2829-2.5313-11.0264l64.997-103.7302c2.3461-3.7442,7.2829-4.8774,11.0271-2.5314
		C131.2491,50.8565,131.5669,51.0904,131.8626,51.3427z"/>
</g>
</svg>
