<?xml version="1.0" encoding="utf-8"?>
<!-- Generator: Adobe Illustrator 26.5.0, SVG Export Plug-In . SVG Version: 6.00 Build 0)  -->
<svg version="1.1" xmlns="http://www.w3.org/2000/svg" xmlns:xlink="http://www.w3.org/1999/xlink" x="0px" y="0px"
	 viewBox="0 0 792 612" style="enable-background:new 0 0 792 612;" xml:space="preserve">
<g id="Layer_2">
	<path style="fill:#FFFFFF;stroke:#000000;stroke-width:3;stroke-miterlimit:10;" d="M0,366.153l82.7493-0.4799
		c5.4808,0.1599,10.9616,0.3199,16.4423,0.4799c4.2856-0.1599,8.5712-0.3199,12.8568-0.4799
		c13.6611-0.0225,27.3222-0.0449,40.9833-0.0674c41.84-0.0688,83.6801-0.1377,125.5201-0.2065
		c4.2186-7.6268,8.4372-15.2536,12.6557-22.8804l12.6557,22.8804c5.6002,0.2513,11.2004,0.5025,16.8006,0.7538
		c5.1621-0.2513,10.3242-0.5025,15.4863-0.7538c60.0154,0.0473,120.0308,0.0946,180.0461,0.1419
		c4.9887,0.2039,9.9774,0.4079,14.9661,0.6119c4.9668-0.2006,9.9337-0.4013,14.9005-0.6019l112.6427,0.0001
		c5.039-5.0575,10.0779-10.115,15.1169-15.1725c4.7274,5.0575,9.4548,10.115,14.1822,15.1725
		c4.9163,0.2006,9.8326,0.4012,14.7488,0.6018c4.8501-0.2006,9.7001-0.4012,14.5502-0.6017
		c2.4658-4.0599,4.9317-8.1198,7.3975-12.1797c2.4173,4.0598,4.8347,8.1196,7.252,12.1794L792,366.153V612H0V366.153z"/>
</g>
<g id="Layer_4">
	<polygon style="fill:#FFFFFF;" points="808.5854,620.5489 -21.4575,620.5489 -21.4575,366.153 99.1917,366.153 128.1227,366.153 
		153.0318,366.153 808.5854,366.153 	"/>
</g>
<g id="Layer_3">
	<path style="fill:#FFFFFF;stroke:#000000;stroke-width:3;stroke-miterlimit:10;" d="M417.4045,462.1328
		c0.5695-0.3571,28.6269,32.5182,20.5375,42.6374c-6.7697,8.4683-35.0822-3.7186-34.9476-4.2967
		c0.122-0.5241,23.5265,8.8999,29.7541,1.0032C440.4074,491.7651,416.8724,462.4665,417.4045,462.1328z"/>
	<path style="fill:#FFFFFF;stroke:#000000;stroke-width:3;stroke-miterlimit:10;" d="M384.7004,462.1328
		c-0.5695-0.3571-28.6269,32.5182-20.5375,42.6374c6.7697,8.4683,35.0822-3.7186,34.9476-4.2967
		c-0.122-0.5241-23.5265,8.8999-29.7541,1.0032C361.6974,491.7651,385.2325,462.4665,384.7004,462.1328z"/>
	<path style="fill:#FFFFFF;stroke:#000000;stroke-width:3;stroke-miterlimit:10;" d="M416.2768,477.1155
		c0.4626-0.2901,23.2538,26.4148,16.6828,34.6346c-5.4991,6.8788-28.4976-3.0206-28.3882-3.4902
		c0.0991-0.4257,19.1108,7.2294,24.1695,0.8149C434.9623,501.186,415.8446,477.3865,416.2768,477.1155z"/>
	<path style="fill:#FFFFFF;stroke:#000000;stroke-width:3;stroke-miterlimit:10;" d="M389.711,477.1155
		c-0.4626-0.2901-23.2538,26.4148-16.6828,34.6346c5.4991,6.8788,28.4976-3.0206,28.3882-3.4902
		c-0.0991-0.4257-19.1108,7.2294-24.1695,0.8149C371.0255,501.186,390.1433,477.3865,389.711,477.1155z"/>
	<path style="fill:#FFFFFF;stroke:#000000;stroke-width:3;stroke-miterlimit:10;" d="M414.8735,493.3834
		c0.3588-0.225,18.0362,20.4879,12.9395,26.8634c-4.2652,5.3353-22.1033-2.3429-22.0185-2.7071
		c0.0769-0.3302,14.8228,5.6073,18.7464,0.6321C429.3664,512.053,414.5383,493.5936,414.8735,493.3834z"/>
	<path style="fill:#FFFFFF;stroke:#000000;stroke-width:3;stroke-miterlimit:10;" d="M394.2685,493.3834
		c-0.3588-0.225-18.0362,20.4879-12.9395,26.8634c4.2652,5.3353,22.1033-2.3429,22.0185-2.7071
		c-0.0769-0.3302-14.8228,5.6073-18.7464,0.6321C379.7756,512.053,394.6038,493.5936,394.2685,493.3834z"/>
	<path style="fill:#FFFFFF;stroke:#000000;stroke-width:3;stroke-miterlimit:10;" d="M400.8199,500.7302
		c2.6867-0.3067,5.652,1.1952,5.6397,2.4814c-0.011,1.155-2.4209,1.9399-2.707,2.0303c-3.1389,0.9918-7.0951-0.3753-7.2188-1.8047
		C396.4347,502.293,398.7788,500.9632,400.8199,500.7302z"/>
	<path style="fill:#FFFFFF;stroke:#000000;stroke-width:3;stroke-miterlimit:10;" d="M401.6024,510.4208
		c2.6867-0.3067,5.652,1.1952,5.6397,2.4815c-0.0111,1.155-2.421,1.9399-2.7071,2.0303c-3.1389,0.9918-7.0951-0.3753-7.2188-1.8047
		C397.2172,511.9837,399.5613,510.6538,401.6024,510.4208z"/>
	<path style="fill:#FFFFFF;stroke:#000000;stroke-width:3;stroke-miterlimit:10;" d="M402.9326,519.722
		c2.6867-0.3068,5.652,1.1952,5.6397,2.4814c-0.011,1.155-2.4209,1.9399-2.707,2.0303c-3.1389,0.9918-7.0951-0.3753-7.2188-1.8047
		C398.5473,521.2848,400.8915,519.955,402.9326,519.722z"/>
</g>
</svg>
