<?xml version="1.0" encoding="utf-8"?>
<!-- Generator: Adobe Illustrator 26.5.0, SVG Export Plug-In . SVG Version: 6.00 Build 0)  -->
<svg version="1.1" id="running1" xmlns="http://www.w3.org/2000/svg" xmlns:xlink="http://www.w3.org/1999/xlink" x="0px" y="0px"
	 viewBox="0 0 237.6 378" style="enable-background:new 0 0 237.6 378;" xml:space="preserve">
<path d="M96.2,263.9h7.9l4.8-45l8.3,45h34.3l6.1-56.5l10.4,56.5h52V132.2c0-34.2-27.7-61.9-61.9-61.9S96.2,98,96.2,132.2
	C96.2,132.2,96.2,263.9,96.2,263.9z"/>
<circle style="fill:#FFFFFF;stroke:#000000;stroke-width:5;stroke-miterlimit:10;" cx="92.5" cy="85.9" r="73"/>
<g>
	<line style="fill:none;stroke:#000000;stroke-width:5;stroke-miterlimit:10;" x1="40.4" y1="88.7" x2="67.5" y2="67.6"/>
	<line style="fill:none;stroke:#000000;stroke-width:5;stroke-miterlimit:10;" x1="60.2" y1="92.7" x2="49.1" y2="64.5"/>
</g>
<g>
	<line style="fill:none;stroke:#000000;stroke-width:5;stroke-miterlimit:10;" x1="28.7" y1="118.1" x2="103.8" y2="133.5"/>
	<line style="fill:none;stroke:#000000;stroke-width:5;stroke-miterlimit:10;" x1="89" y1="140.6" x2="92.3" y2="121.2"/>
	<line style="fill:none;stroke:#000000;stroke-width:5;stroke-miterlimit:10;" x1="72.4" y1="137.2" x2="75.5" y2="118.9"/>
	<line style="fill:none;stroke:#000000;stroke-width:5;stroke-miterlimit:10;" x1="57" y1="133.5" x2="61.2" y2="115.4"/>
	<line style="fill:none;stroke:#000000;stroke-width:5;stroke-miterlimit:10;" x1="44.2" y1="130.4" x2="47.7" y2="113.3"/>
</g>
<g>
	<circle style="fill:#FFFFFF;stroke:#000000;stroke-width:5;stroke-miterlimit:10;" cx="102.4" cy="86.7" r="14.2"/>
	<circle cx="102.5" cy="86.2" r="6.2"/>
</g>
<line style="fill:none;stroke:#000000;stroke-width:16;stroke-linecap:round;stroke-miterlimit:10;" x1="33.9" y1="170.5" x2="103.3" y2="194.1"/>
<g>
	<path style="fill:#FFFFFF;" d="M214.8,224.2l-29.3-118.9c-1.1-4.3,1.6-8.6,5.9-9.7c4.3-1.1,8.6,1.6,9.7,5.9l29.3,118.9
		c1.1,4.3-1.6,8.6-5.9,9.7c-0.6,0.2-1.3,0.2-1.9,0.2C219,230.2,215.7,227.8,214.8,224.2z"/>
</g>
<line style="fill:none;stroke:#000000;stroke-width:16;stroke-linecap:round;stroke-miterlimit:10;" x1="95.3" y1="357.4" x2="137.9" y2="231.8"/>
<line style="fill:none;stroke:#000000;stroke-width:16;stroke-linecap:round;stroke-miterlimit:10;" x1="204.2" y1="331.4" x2="168.1" y2="208.4"/>
</svg>
